<?xml version="1.0" standalone="no"?>
<!DOCTYPE svg PUBLIC "-//W3C//DTD SVG 20010904//EN"
 "http://www.w3.org/TR/2001/REC-SVG-20010904/DTD/svg10.dtd">
<svg version="1.0" xmlns="http://www.w3.org/2000/svg"
 width="4961.000000pt" height="4961.000000pt" viewBox="0 0 4961.000000 4961.000000"
 preserveAspectRatio="xMidYMid meet">
<metadata>
Created by potrace 1.14, written by Peter Selinger 2001-2017
</metadata>
<g transform="translate(0.000000,4961.000000) scale(0.100000,-0.100000)"
fill="#000000" stroke="none">
<path d="M21425 40848 c-4 -10 -47 -13 -175 -12 -121 1 -170 -2 -170 -10 0 -8
-38 -11 -125 -10 -84 1 -128 -3 -135 -11 -6 -8 -46 -11 -120 -10 -81 2 -110
-1 -110 -10 0 -9 -26 -12 -91 -11 -66 1 -96 -2 -105 -12 -8 -7 -14 -10 -14 -6
0 3 -7 1 -15 -6 -8 -7 -15 -8 -15 -3 0 12 -124 6 -128 -7 -2 -5 -8 -8 -13 -4
-5 3 -9 0 -9 -6 0 -7 -6 -8 -17 -1 -10 5 -26 5 -40 0 -13 -5 -23 -5 -23 -1 0
4 -12 8 -26 8 -14 1 -23 -1 -20 -4 3 -3 -4 -12 -16 -20 -14 -10 -23 -12 -25
-5 -3 7 -16 8 -36 3 -18 -4 -43 -3 -55 1 -13 5 -21 5 -18 0 11 -17 -20 -26
-84 -25 -36 0 -70 -4 -76 -10 -6 -7 -35 -11 -65 -10 -30 0 -57 -4 -61 -10 -4
-6 -29 -12 -55 -13 -53 -1 -72 -5 -89 -15 -6 -4 -27 -6 -47 -5 -22 2 -38 -2
-41 -9 -3 -8 -25 -12 -65 -11 -39 1 -62 -2 -65 -10 -3 -6 -25 -11 -52 -11 -26
0 -50 -5 -53 -11 -4 -5 -29 -11 -56 -12 -28 -1 -53 -7 -57 -12 -3 -6 -24 -10
-47 -10 -22 0 -42 -5 -45 -12 -3 -8 -21 -12 -51 -10 -31 2 -48 -1 -51 -10 -3
-8 -19 -12 -40 -10 -25 1 -39 -4 -48 -17 -8 -11 -16 -15 -20 -10 -8 13 -77 6
-87 -9 -5 -8 -9 -11 -9 -7 0 4 -11 3 -25 -2 -16 -6 -25 -6 -25 0 0 5 -7 7 -15
4 -8 -4 -15 -11 -15 -18 0 -6 -11 -12 -25 -12 -14 -1 -25 2 -25 8 0 5 -13 0
-28 -11 -18 -13 -33 -17 -42 -11 -9 5 -19 5 -27 -2 -7 -6 -13 -7 -13 -4 0 4
-7 0 -16 -8 -9 -10 -26 -14 -42 -11 -14 2 -29 -1 -34 -7 -4 -7 -22 -13 -40
-13 -19 -1 -40 -5 -48 -10 -8 -6 -30 -10 -48 -11 -18 -1 -38 -6 -45 -13 -6 -6
-21 -11 -34 -11 -13 0 -26 -6 -29 -13 -3 -8 -18 -11 -44 -9 -25 3 -40 0 -40
-7 0 -6 -14 -11 -30 -11 -17 0 -33 -6 -36 -14 -3 -8 -18 -12 -44 -10 -27 2
-40 -2 -44 -13 -4 -8 -13 -13 -21 -9 -21 8 -46 -4 -38 -18 3 -6 3 -8 -2 -4 -4
4 -15 3 -25 -2 -10 -5 -21 -6 -25 -2 -12 12 -30 8 -47 -13 -10 -11 -17 -15
-18 -9 0 11 -30 15 -30 4 0 -4 -11 -12 -25 -18 -19 -9 -25 -9 -25 1 0 7 -7 4
-15 -7 -8 -11 -21 -16 -30 -13 -8 4 -15 2 -15 -4 0 -6 -7 -9 -15 -5 -9 3 -15
0 -15 -8 0 -9 -12 -12 -40 -10 -27 2 -40 -1 -40 -10 0 -8 -11 -12 -31 -11 -17
1 -33 -4 -36 -11 -2 -6 -15 -11 -29 -9 -13 1 -28 -3 -34 -10 -6 -7 -22 -12
-36 -12 -15 0 -30 -6 -34 -13 -4 -7 -17 -10 -28 -8 -13 4 -23 0 -26 -8 -3 -8
-15 -14 -26 -14 -11 0 -20 -4 -20 -10 0 -5 -14 -10 -30 -10 -17 0 -33 -6 -36
-14 -3 -8 -14 -13 -25 -11 -26 5 -50 -5 -43 -17 4 -6 -2 -8 -15 -3 -13 4 -28
1 -38 -7 -9 -7 -23 -13 -32 -13 -27 -1 -100 -38 -94 -48 3 -5 -4 -4 -16 2 -14
8 -21 8 -21 1 0 -5 -7 -10 -15 -10 -8 0 -15 -5 -15 -12 0 -9 -3 -9 -12 0 -8 8
-18 6 -40 -9 -15 -11 -28 -17 -28 -13 0 4 -8 0 -18 -9 -10 -10 -21 -14 -24
-11 -4 3 -17 0 -30 -7 -12 -7 -29 -12 -35 -11 -7 2 -13 -4 -13 -12 0 -9 -9
-15 -22 -14 -27 2 -98 -28 -98 -41 0 -4 -11 -6 -25 -3 -16 3 -27 -1 -31 -11
-3 -9 -12 -13 -20 -10 -8 3 -21 -3 -29 -13 -11 -15 -14 -16 -15 -4 0 13 -1 13
-10 0 -5 -8 -10 -11 -10 -6 0 5 -9 1 -21 -10 -12 -10 -24 -18 -28 -18 -3 1
-17 -2 -29 -7 -13 -5 -28 -7 -33 -3 -5 3 -12 -2 -15 -11 -4 -9 -13 -14 -20
-11 -7 3 -19 0 -26 -7 -22 -20 -82 -51 -73 -38 4 7 -7 5 -26 -5 -19 -10 -38
-18 -42 -19 -4 0 -12 -6 -16 -14 -5 -7 -13 -11 -19 -7 -5 3 -15 -1 -22 -10 -7
-8 -19 -13 -27 -10 -7 3 -13 -1 -13 -9 0 -10 -9 -14 -29 -11 -19 2 -32 -2 -35
-10 -3 -8 -15 -14 -26 -14 -11 0 -20 -5 -20 -11 0 -6 -6 -9 -14 -6 -8 3 -17
-1 -20 -9 -3 -8 -15 -14 -26 -14 -11 0 -20 -4 -20 -10 0 -5 -8 -10 -19 -10
-10 0 -24 -6 -31 -14 -6 -8 -18 -12 -26 -9 -9 3 -14 -1 -14 -12 0 -11 -5 -15
-15 -11 -8 3 -15 0 -15 -7 0 -9 -3 -8 -9 1 -6 11 -12 10 -26 -5 -10 -10 -20
-16 -21 -13 -2 3 -12 -2 -23 -12 -14 -12 -22 -13 -30 -5 -8 8 -11 6 -11 -6 0
-10 -8 -17 -18 -17 -10 0 -24 -6 -31 -12 -6 -7 -15 -13 -19 -13 -4 -1 -17 -6
-29 -13 -13 -7 -23 -9 -23 -5 0 4 -5 0 -11 -9 -5 -10 -19 -18 -29 -18 -11 0
-20 -5 -20 -11 0 -6 -6 -9 -14 -6 -8 3 -17 -1 -20 -9 -3 -8 -14 -14 -24 -14
-10 0 -24 -6 -31 -12 -6 -7 -15 -13 -19 -14 -21 -2 -62 -25 -62 -34 0 -6 -4
-8 -10 -5 -5 3 -20 -1 -33 -10 -13 -8 -27 -12 -30 -8 -4 3 -7 -2 -7 -11 0 -12
-5 -16 -15 -12 -8 3 -26 -6 -40 -20 -14 -14 -25 -22 -25 -18 0 4 -8 0 -17 -8
-10 -8 -34 -21 -53 -28 -19 -7 -41 -20 -47 -28 -7 -9 -13 -13 -13 -9 0 4 -13
1 -30 -8 -16 -9 -30 -12 -30 -8 0 4 -6 -2 -14 -13 -8 -10 -18 -16 -22 -12 -4
4 -15 -2 -25 -13 -18 -21 -103 -69 -122 -69 -5 0 -18 -9 -28 -21 -10 -11 -24
-22 -32 -23 -8 -1 -22 -8 -31 -15 -8 -7 -19 -10 -25 -7 -5 3 -11 -1 -15 -9 -3
-8 -12 -15 -19 -15 -8 0 -26 -11 -41 -25 -14 -13 -26 -22 -26 -19 0 2 -11 -3
-25 -12 -14 -9 -25 -13 -25 -9 0 5 -9 0 -20 -10 -11 -10 -17 -22 -13 -28 3 -5
2 -7 -3 -4 -12 7 -71 -21 -98 -45 -18 -17 -25 -19 -42 -17 -4 0 -10 -4 -13 -9
-3 -6 -13 -12 -21 -14 -8 -2 -23 -13 -33 -26 -10 -12 -22 -20 -27 -17 -5 3
-15 -2 -23 -10 -9 -8 -21 -15 -27 -15 -6 0 -22 -11 -36 -25 -15 -15 -30 -22
-42 -18 -9 3 -14 3 -10 -1 9 -10 -24 -44 -38 -39 -6 2 -14 -3 -17 -11 -4 -9
-13 -16 -22 -16 -8 0 -15 -4 -15 -10 0 -5 -5 -10 -10 -10 -6 0 -20 -9 -32 -20
-12 -11 -30 -20 -39 -20 -10 0 -19 -4 -21 -9 -1 -5 -10 -11 -18 -13 -8 -2 -23
-13 -33 -26 -10 -12 -22 -20 -27 -17 -4 2 -20 -7 -34 -20 -15 -14 -31 -25 -37
-25 -5 0 -26 -16 -46 -36 -27 -28 -38 -33 -44 -22 -5 7 -9 8 -9 2 0 -19 -34
-51 -52 -48 -10 1 -18 -3 -18 -8 0 -15 -32 -37 -53 -38 -10 0 -16 -4 -13 -9 3
-5 -10 -16 -29 -25 -18 -9 -48 -30 -65 -47 -17 -17 -34 -29 -37 -25 -3 3 -16
-6 -29 -19 -13 -14 -28 -25 -34 -25 -15 0 -40 -25 -40 -40 0 -6 -5 -8 -10 -5
-6 3 -13 -1 -16 -9 -3 -9 -10 -13 -16 -10 -5 3 -25 -10 -44 -30 -19 -20 -42
-36 -50 -36 -8 0 -17 -7 -20 -15 -4 -8 -10 -12 -15 -9 -5 3 -9 -2 -9 -11 0 -9
-4 -13 -10 -10 -5 3 -10 -1 -10 -10 0 -9 -5 -13 -11 -10 -5 4 -26 -9 -45 -29
-19 -19 -37 -36 -39 -36 -3 0 -9 0 -14 0 -4 0 -23 -15 -42 -34 -18 -19 -36
-33 -40 -30 -10 6 -59 -40 -59 -55 0 -7 -4 -10 -9 -6 -5 3 -13 -4 -16 -16 -5
-15 -9 -18 -15 -9 -5 8 -19 1 -46 -26 -21 -21 -43 -39 -49 -39 -6 0 -36 -26
-67 -58 -38 -38 -61 -55 -72 -51 -9 3 -16 2 -16 -4 0 -13 -63 -76 -80 -80 -8
-2 -22 -12 -32 -22 -9 -11 -22 -20 -29 -20 -7 0 -10 -3 -7 -6 8 -7 -73 -84
-83 -79 -4 3 -19 -9 -33 -26 -14 -17 -26 -28 -26 -24 0 3 -19 -15 -42 -39 -22
-25 -44 -44 -47 -41 -10 5 -72 -51 -64 -59 3 -3 0 -6 -8 -6 -8 -1 -27 -18 -44
-39 -16 -21 -33 -37 -36 -35 -3 1 -12 -6 -19 -17 -8 -10 -20 -19 -27 -19 -6 0
-79 -67 -161 -150 -82 -82 -152 -147 -155 -144 -3 3 -46 -36 -96 -85 -51 -50
-97 -91 -102 -91 -6 0 -9 -7 -5 -15 3 -8 1 -15 -5 -15 -5 0 -61 -52 -124 -115
-63 -63 -120 -115 -127 -115 -6 0 -8 -3 -5 -6 3 -4 -24 -36 -61 -72 -37 -36
-66 -70 -64 -74 1 -4 -5 -8 -13 -8 -8 0 -15 -5 -15 -11 0 -5 -4 -7 -10 -4 -5
3 -10 0 -10 -7 0 -7 -14 -24 -30 -37 -19 -15 -30 -32 -30 -49 0 -14 -3 -23 -6
-20 -7 8 -299 -284 -296 -296 2 -4 -13 -23 -32 -42 -18 -18 -31 -35 -28 -38 3
-3 0 -6 -6 -6 -15 0 -102 -89 -102 -104 0 -7 -23 -34 -50 -60 -28 -25 -48 -46
-44 -46 4 0 -5 -9 -20 -21 -22 -17 -24 -24 -15 -36 7 -8 8 -13 3 -11 -5 2 -20
-5 -34 -15 -13 -9 -21 -17 -17 -17 4 0 -1 -8 -11 -18 -9 -11 -19 -18 -22 -16
-3 1 -11 -4 -18 -12 -7 -8 -9 -14 -5 -14 4 0 0 -5 -9 -11 -10 -5 -18 -17 -18
-24 0 -8 -9 -24 -20 -35 -11 -11 -20 -17 -20 -12 0 4 -8 -5 -18 -21 -10 -15
-21 -24 -24 -21 -4 3 -5 -6 -4 -20 2 -14 0 -24 -3 -23 -11 4 -113 -101 -107
-111 7 -12 -28 -44 -39 -35 -4 5 -5 3 -1 -4 4 -7 -2 -17 -14 -23 -11 -6 -18
-16 -14 -21 3 -6 -15 -30 -40 -55 -26 -25 -45 -50 -44 -57 2 -7 -2 -14 -7 -17
-22 -10 -63 -64 -58 -76 3 -8 -1 -14 -10 -14 -9 0 -19 -9 -22 -20 -4 -11 -11
-18 -16 -15 -5 4 -10 1 -10 -4 -4 -34 -20 -61 -36 -61 -8 0 -11 -4 -8 -10 3
-5 2 -10 -4 -10 -6 0 -18 -16 -27 -35 -9 -19 -23 -35 -31 -35 -8 0 -12 -4 -9
-9 3 -5 -1 -12 -10 -15 -8 -3 -14 -12 -12 -20 2 -7 -14 -29 -34 -49 -20 -19
-34 -37 -31 -41 9 -9 -28 -46 -39 -40 -6 4 -7 -2 -4 -14 5 -15 1 -25 -13 -34
-12 -7 -21 -18 -21 -25 0 -7 -5 -12 -12 -11 -7 2 -13 -1 -13 -7 -3 -26 -17
-54 -28 -52 -6 1 -13 -9 -15 -22 -2 -14 -15 -33 -28 -44 -13 -10 -22 -23 -19
-28 4 -5 -5 -20 -19 -33 -14 -13 -26 -30 -26 -37 0 -8 -15 -27 -34 -43 -20
-16 -32 -34 -29 -42 3 -8 0 -14 -6 -14 -6 0 -11 -9 -11 -20 0 -11 -11 -27 -26
-36 -14 -9 -23 -23 -20 -30 3 -7 -6 -22 -19 -33 -14 -10 -25 -28 -25 -39 0
-12 -9 -23 -20 -27 -13 -4 -20 -15 -20 -31 0 -15 -6 -24 -16 -24 -8 0 -13 -4
-10 -9 3 -5 -1 -12 -9 -15 -8 -3 -14 -10 -13 -14 2 -5 -9 -24 -25 -41 -15 -17
-22 -31 -16 -31 7 0 3 -8 -9 -18 -16 -14 -18 -22 -10 -30 9 -9 8 -12 -3 -12
-19 0 -47 -32 -41 -48 2 -7 -3 -15 -12 -18 -9 -3 -13 -10 -10 -15 3 -5 -2 -9
-10 -9 -9 0 -15 -3 -15 -7 4 -25 -2 -43 -13 -37 -8 5 -9 2 -5 -9 4 -10 0 -20
-11 -26 -9 -6 -13 -11 -7 -11 5 0 0 -7 -12 -15 -12 -9 -20 -22 -17 -29 3 -7
-2 -16 -11 -20 -9 -3 -13 -11 -10 -16 4 -6 -4 -20 -17 -32 -12 -11 -22 -24
-20 -30 1 -5 -5 -16 -13 -25 -9 -8 -14 -20 -12 -27 2 -6 -6 -15 -17 -21 -11
-6 -22 -19 -25 -30 -2 -11 -10 -24 -18 -28 -11 -7 -11 -12 -3 -22 9 -11 7 -16
-9 -25 -12 -6 -20 -14 -20 -18 3 -20 -2 -33 -11 -27 -5 3 -10 -1 -10 -9 0 -9
-4 -16 -10 -16 -5 0 -10 -9 -10 -21 0 -11 -4 -17 -10 -14 -6 4 -10 -5 -10 -19
0 -14 -4 -26 -10 -26 -5 0 -10 -12 -10 -26 0 -14 -4 -23 -10 -19 -9 5 -15 -15
-11 -37 0 -5 -4 -8 -10 -8 -15 0 -39 -26 -31 -34 3 -4 1 -11 -6 -15 -7 -4 -14
-17 -15 -29 0 -11 -5 -18 -9 -16 -7 4 -11 -9 -7 -18 1 -2 -12 -26 -29 -55 -21
-35 -27 -53 -19 -57 7 -2 4 -5 -5 -5 -16 -1 -42 -34 -43 -54 0 -4 -6 -12 -14
-16 -7 -5 -11 -13 -7 -19 3 -5 -1 -15 -10 -22 -8 -7 -13 -19 -10 -26 3 -7 -2
-15 -11 -18 -8 -4 -13 -13 -10 -20 3 -8 -1 -17 -9 -20 -8 -3 -14 -15 -14 -26
0 -14 -4 -19 -12 -14 -8 5 -9 0 -6 -14 4 -12 2 -22 -2 -22 -10 0 -40 -57 -40
-77 0 -7 -7 -16 -15 -19 -8 -4 -13 -10 -10 -14 3 -5 0 -14 -7 -22 -7 -7 -14
-20 -16 -28 -2 -8 -8 -18 -13 -21 -6 -3 -9 -10 -8 -15 4 -21 -2 -35 -11 -29
-6 4 -9 3 -8 -2 5 -18 -14 -53 -25 -47 -9 5 -9 4 0 -6 9 -10 7 -17 -8 -33 -11
-12 -17 -27 -15 -34 8 -19 -4 -44 -17 -36 -6 4 -8 0 -4 -11 4 -10 1 -19 -6
-22 -7 -2 -14 -14 -14 -27 -1 -12 -7 -23 -13 -25 -5 -2 -10 -12 -10 -23 0 -11
-6 -22 -14 -25 -8 -3 -12 -12 -9 -20 3 -8 0 -14 -6 -14 -6 0 -11 -9 -11 -20 0
-11 -6 -23 -14 -26 -8 -3 -11 -15 -8 -29 3 -17 -1 -27 -12 -31 -9 -3 -14 -10
-11 -14 8 -13 -6 -40 -18 -33 -6 4 -8 0 -4 -10 3 -8 -1 -21 -9 -28 -8 -7 -13
-18 -10 -26 3 -8 -1 -16 -8 -19 -8 -3 -16 -14 -19 -25 -3 -11 -1 -16 5 -13 6
4 5 -3 -1 -15 -7 -11 -16 -21 -20 -21 -5 0 -7 -10 -3 -22 3 -14 2 -19 -6 -14
-8 5 -12 0 -12 -14 0 -11 -6 -23 -14 -26 -8 -3 -12 -16 -10 -34 2 -18 -2 -30
-12 -34 -8 -3 -13 -10 -10 -15 4 -5 -1 -16 -9 -25 -9 -8 -16 -18 -15 -21 2
-39 -2 -55 -12 -49 -8 5 -9 0 -6 -14 4 -15 2 -22 -8 -22 -9 0 -14 -12 -14 -35
0 -19 -4 -35 -8 -35 -11 0 -38 -70 -34 -87 2 -7 -4 -16 -12 -19 -8 -3 -12 -12
-9 -20 3 -7 -2 -16 -10 -20 -9 -3 -14 -14 -11 -27 2 -11 -4 -29 -13 -39 -9
-10 -13 -18 -9 -18 4 0 -2 -12 -14 -27 -11 -14 -17 -29 -13 -32 14 -11 13 -31
-1 -31 -16 0 -28 -37 -14 -46 5 -3 0 -13 -11 -21 -12 -8 -19 -19 -16 -24 4 -5
-1 -12 -10 -15 -12 -5 -15 -14 -10 -31 3 -15 0 -29 -9 -39 -8 -8 -13 -23 -11
-35 2 -11 -2 -22 -9 -25 -8 -3 -13 -13 -11 -22 1 -9 -4 -27 -11 -40 -8 -12
-14 -28 -13 -35 3 -26 -1 -38 -13 -31 -6 4 -8 3 -4 -4 3 -6 2 -13 -4 -17 -6
-4 -8 -11 -5 -16 4 -5 1 -9 -4 -9 -6 0 -11 -10 -11 -23 0 -12 -6 -31 -13 -42
-7 -11 -12 -30 -11 -42 0 -12 -5 -24 -12 -27 -8 -3 -11 -12 -8 -20 3 -8 -1
-25 -10 -38 -9 -13 -14 -34 -11 -46 2 -13 0 -20 -6 -17 -10 7 -11 4 -13 -42
-1 -17 -8 -38 -15 -47 -7 -8 -10 -20 -6 -26 3 -5 1 -10 -6 -10 -8 0 -8 -5 2
-17 7 -10 10 -15 5 -11 -16 13 -34 -16 -25 -39 6 -17 5 -23 -5 -23 -17 0 -26
-22 -20 -48 4 -11 0 -21 -9 -25 -9 -3 -13 -16 -11 -34 1 -15 -4 -39 -12 -51
-9 -13 -13 -26 -10 -30 3 -3 -1 -15 -9 -28 -8 -12 -12 -31 -10 -42 2 -12 -3
-23 -11 -26 -10 -4 -14 -18 -12 -43 1 -22 -3 -38 -10 -41 -7 -2 -12 -22 -12
-48 0 -30 -4 -44 -14 -44 -9 0 -12 -8 -8 -26 3 -17 0 -30 -9 -35 -9 -5 -14
-22 -13 -48 0 -23 -4 -42 -11 -45 -7 -2 -12 -19 -11 -38 1 -18 -3 -38 -10 -45
-6 -6 -10 -24 -9 -40 1 -15 -3 -31 -8 -34 -5 -4 -12 -26 -14 -49 -2 -24 -11
-49 -19 -58 -9 -8 -11 -18 -6 -21 14 -9 6 -41 -15 -57 -11 -8 -13 -13 -5 -14
9 0 10 -5 3 -18 -6 -11 -6 -24 1 -36 7 -13 7 -17 0 -12 -16 10 -30 -24 -25
-63 3 -19 0 -31 -5 -27 -13 8 -18 -11 -17 -61 1 -25 -3 -44 -11 -47 -8 -3 -11
-21 -9 -51 3 -34 0 -48 -11 -52 -11 -4 -14 -15 -10 -43 4 -28 1 -40 -9 -44
-10 -3 -14 -20 -13 -52 0 -25 -4 -49 -9 -53 -5 -3 -10 -28 -12 -56 -2 -27 -7
-53 -12 -56 -5 -3 -10 -32 -11 -65 -1 -32 -7 -64 -13 -70 -6 -7 -10 -29 -9
-49 2 -20 -3 -47 -10 -58 -8 -12 -12 -40 -11 -62 1 -22 -2 -49 -9 -60 -6 -11
-11 -45 -11 -75 -1 -40 -5 -54 -14 -52 -9 2 -12 -4 -8 -18 3 -11 1 -23 -4 -26
-5 -3 -5 -13 -1 -22 11 -22 5 -84 -9 -93 -7 -4 -8 -12 -5 -18 4 -6 2 -11 -4
-11 -7 0 -8 -6 -1 -18 7 -13 6 -23 -1 -30 -8 -8 -8 -12 -2 -12 6 0 10 -10 8
-22 -1 -13 -3 -26 -3 -30 -1 -5 -8 -8 -17 -8 -12 0 -14 -4 -6 -12 5 -7 6 -22
2 -33 -4 -11 -3 -30 1 -43 6 -14 5 -21 0 -17 -6 3 -9 -7 -8 -22 1 -16 -3 -27
-8 -26 -12 2 -12 -97 -1 -115 4 -7 3 -12 -3 -12 -6 0 -8 -6 -5 -14 3 -7 -1
-20 -8 -27 -9 -9 -13 -43 -13 -102 0 -52 -4 -92 -11 -98 -7 -5 -10 -49 -9
-119 1 -77 -2 -110 -10 -110 -8 0 -12 -38 -11 -130 1 -96 -2 -130 -11 -130 -9
0 -12 -32 -10 -125 1 -76 -2 -127 -8 -129 -6 -3 -6 -5 0 -5 13 -1 7 -79 -6
-87 -13 -8 -12 -2061 1 -2066 13 -4 18 -317 5 -321 -5 -2 0 -11 10 -20 18 -16
20 -29 19 -138 -1 -81 3 -122 10 -125 7 -3 11 -43 10 -119 0 -82 3 -116 12
-119 8 -3 11 -24 10 -60 -1 -31 2 -56 7 -56 6 0 5 -5 -1 -12 -12 -16 -9 -43
11 -88 8 -19 12 -37 9 -40 -9 -6 -10 -100 -1 -100 9 0 28 -47 21 -54 -10 -10
-1 -100 10 -107 6 -4 8 -14 5 -23 -4 -9 -3 -16 1 -16 4 0 8 -9 8 -20 0 -11 -4
-20 -8 -20 -5 0 -4 -9 2 -19 7 -14 7 -22 0 -26 -7 -4 -4 -13 7 -23 13 -13 18
-32 18 -74 1 -34 -4 -58 -10 -58 -5 0 -1 -7 10 -15 15 -12 19 -29 21 -73 2
-71 2 -74 12 -68 5 3 8 -20 7 -50 -1 -32 3 -61 10 -67 6 -7 11 -32 11 -56 -1
-26 4 -50 12 -58 8 -8 12 -16 9 -19 -2 -3 -1 -21 3 -40 4 -18 4 -34 0 -34 -12
0 -5 -31 9 -39 13 -8 19 -67 8 -78 -4 -3 1 -15 10 -25 12 -13 16 -33 14 -64
-2 -30 2 -46 11 -49 9 -4 13 -19 12 -43 0 -20 3 -40 9 -44 6 -3 11 -27 12 -53
0 -25 5 -49 11 -53 5 -4 10 -30 9 -59 0 -30 4 -51 10 -50 6 1 10 -17 9 -40 0
-28 4 -43 12 -43 6 0 14 -7 18 -15 3 -8 1 -15 -4 -15 -11 0 7 -64 19 -68 5 -2
6 -15 1 -31 -6 -22 -4 -31 10 -41 12 -9 17 -22 14 -37 -5 -29 4 -65 15 -59 4
3 7 -12 6 -32 -1 -20 3 -40 8 -43 5 -4 10 -25 12 -49 1 -23 7 -45 13 -49 6 -3
9 -21 8 -39 -1 -21 3 -36 12 -41 9 -5 12 -15 9 -24 -3 -9 0 -22 6 -29 19 -18
28 -46 18 -53 -5 -3 -7 -14 -4 -25 3 -11 9 -17 14 -14 5 3 9 -15 9 -40 0 -24
5 -46 11 -48 6 -2 12 -16 12 -32 -1 -15 5 -30 11 -32 6 -2 11 -17 10 -32 0
-14 5 -33 13 -40 8 -8 12 -28 10 -47 -3 -23 1 -37 14 -46 14 -10 15 -17 8 -32
-9 -15 -7 -19 10 -24 16 -4 18 -10 12 -27 -8 -19 9 -52 21 -41 2 2 4 -5 4 -15
0 -11 -5 -20 -11 -20 -5 0 -2 -7 9 -15 13 -10 18 -27 19 -59 0 -25 5 -44 11
-43 6 1 11 -11 11 -26 0 -15 6 -31 13 -36 8 -4 13 -14 12 -22 -5 -30 0 -50 10
-44 7 4 9 -3 6 -20 -3 -15 0 -28 7 -31 7 -2 14 -19 15 -37 2 -17 7 -33 12 -35
6 -2 10 -12 10 -23 0 -10 5 -19 10 -19 6 0 10 -16 10 -36 0 -21 4 -33 10 -29
10 6 13 -3 12 -40 0 -11 6 -23 12 -27 7 -4 12 -17 11 -30 -1 -13 3 -26 9 -30
6 -4 11 -21 11 -38 0 -17 7 -35 15 -40 8 -5 11 -12 7 -16 -4 -4 2 -14 13 -21
16 -11 18 -18 10 -33 -8 -15 -6 -21 8 -29 11 -6 18 -19 17 -33 -1 -13 4 -31
12 -40 8 -9 12 -22 8 -27 -3 -6 1 -11 9 -11 11 0 14 -8 11 -29 -2 -19 2 -31
11 -35 8 -3 14 -15 14 -26 0 -11 5 -20 11 -20 7 0 10 -12 7 -30 -3 -22 0 -30
10 -30 9 0 13 -7 9 -20 -3 -13 0 -20 9 -20 9 0 14 -12 14 -36 0 -21 4 -33 10
-29 6 3 10 -3 10 -14 0 -12 5 -21 11 -21 5 0 7 -4 4 -10 -3 -5 -2 -10 3 -10 6
0 8 -8 5 -19 -2 -10 3 -25 12 -35 9 -9 13 -16 10 -16 -4 0 0 -12 10 -26 9 -14
14 -31 12 -38 -3 -6 1 -20 9 -30 7 -11 11 -23 8 -27 -3 -5 2 -9 11 -9 10 0 15
-7 13 -17 -2 -10 6 -26 17 -35 13 -12 16 -17 6 -18 -11 0 -11 -3 -1 -15 7 -8
9 -15 4 -15 -5 0 -3 -4 4 -9 7 -4 14 -17 15 -29 0 -11 6 -20 12 -19 5 1 9 -8
9 -21 -1 -12 4 -22 12 -22 7 0 11 -8 9 -19 -2 -11 3 -22 11 -25 9 -3 12 -16
10 -35 -2 -17 1 -29 7 -28 6 1 13 -7 15 -18 2 -11 9 -23 14 -26 5 -3 10 -16
11 -27 1 -12 7 -22 13 -22 7 0 10 -8 6 -22 -3 -14 -2 -19 6 -14 12 7 16 -5 13
-31 -1 -7 6 -13 15 -13 10 0 14 -5 11 -14 -3 -8 0 -19 7 -25 7 -6 12 -21 11
-33 -1 -13 5 -29 12 -37 8 -7 12 -20 9 -27 -3 -8 0 -13 7 -11 7 1 12 -7 12
-18 0 -11 8 -23 17 -27 10 -4 15 -13 12 -21 -3 -8 2 -19 10 -26 8 -7 12 -19 9
-27 -3 -9 1 -14 12 -14 11 0 15 -5 12 -14 -3 -8 1 -20 9 -27 8 -7 13 -18 10
-26 -3 -8 1 -16 9 -19 8 -4 15 -12 15 -19 0 -7 12 -33 26 -59 21 -38 23 -46
10 -46 -9 0 -16 -6 -16 -13 0 -18 -28 -75 -41 -82 -5 -4 -6 -11 -3 -17 4 -6 0
-14 -7 -19 -8 -4 -14 -12 -14 -16 -1 -4 -6 -18 -13 -31 -7 -12 -10 -28 -6 -34
4 -7 3 -8 -4 -4 -7 4 -14 -4 -18 -20 -8 -32 -34 -84 -34 -69 0 6 -4 4 -9 -4
-5 -8 -8 -23 -6 -33 2 -10 0 -16 -6 -13 -5 4 -10 1 -10 -4 -1 -6 -2 -16 -3
-21 0 -6 -7 -14 -14 -19 -8 -5 -13 -11 -13 -15 3 -19 0 -27 -8 -22 -5 3 -8 -8
-7 -24 1 -17 -4 -36 -11 -42 -7 -6 -13 -21 -13 -34 0 -12 -5 -26 -11 -29 -6
-4 -9 -39 -8 -86 1 -44 0 -81 -3 -84 -2 -2 -1 -30 2 -60 3 -31 3 -58 0 -60 -3
-2 -3 -29 0 -60 3 -31 3 -58 -1 -61 -9 -5 8 -68 19 -71 4 -2 6 -21 6 -42 -1
-22 3 -42 10 -44 6 -2 11 -20 10 -38 0 -18 5 -39 12 -46 7 -8 11 -29 9 -50 -2
-23 2 -42 12 -51 9 -10 13 -25 9 -43 -3 -18 0 -34 10 -44 9 -8 12 -15 8 -15
-3 0 -1 -6 5 -13 6 -8 8 -17 4 -21 -12 -12 -9 -40 5 -55 8 -8 12 -28 10 -46
-3 -29 13 -61 25 -49 7 7 0 -43 -8 -55 -3 -6 -2 -11 4 -11 6 0 8 -6 5 -13 -3
-8 1 -19 9 -26 9 -6 13 -24 11 -42 -2 -18 2 -37 11 -45 9 -10 13 -28 10 -55
-3 -27 0 -42 9 -45 9 -3 12 -22 11 -59 -2 -42 1 -55 12 -55 10 0 13 -14 10
-61 -3 -44 0 -62 10 -66 8 -3 13 -23 13 -59 0 -37 4 -54 13 -54 9 0 11 -18 9
-66 -3 -55 -1 -66 10 -61 12 4 14 -4 11 -38 -3 -26 1 -52 9 -66 8 -13 13 -37
12 -54 -1 -16 3 -39 9 -50 6 -11 11 -36 12 -55 1 -25 6 -34 16 -32 8 2 11 0 7
-4 -4 -4 -3 -13 3 -20 7 -8 7 -14 -1 -19 -15 -10 -12 -25 6 -25 9 0 14 -6 11
-13 -3 -8 -1 -20 3 -28 5 -7 5 -18 -1 -25 -6 -8 -5 -14 6 -18 8 -3 15 -15 15
-26 0 -11 6 -23 14 -26 7 -3 12 -16 11 -29 -2 -13 3 -26 12 -29 8 -3 11 -11 8
-17 -4 -5 1 -19 11 -30 9 -10 13 -19 9 -19 -4 0 0 -9 10 -20 10 -11 14 -20 10
-20 -4 0 -1 -8 8 -17 15 -18 17 -22 17 -44 0 -5 5 -7 12 -3 7 5 9 1 6 -13 -4
-15 5 -29 32 -53 26 -22 37 -40 34 -53 -2 -11 -1 -17 2 -14 7 7 84 -69 84 -84
0 -7 2 -10 5 -7 7 7 105 -89 105 -102 0 -5 7 -7 15 -4 9 4 24 -3 36 -17 19
-22 24 -23 221 -23 154 -1 205 2 215 12 7 7 13 11 13 8 0 -3 16 11 35 31 19
20 35 40 35 45 0 5 5 6 10 3 6 -3 14 4 19 17 6 13 10 19 10 14 1 -4 9 2 20 15
10 13 16 29 14 36 -3 7 2 13 10 13 9 0 19 5 23 12 4 6 3 8 -2 5 -11 -6 -12
292 -1 309 3 6 3 14 -1 18 -11 12 -9 306 3 306 7 0 7 3 0 8 -15 10 -14 234 2
247 7 6 11 36 10 84 -2 57 1 78 15 93 12 14 15 26 8 37 -5 10 -5 23 0 31 5 8
5 19 0 25 -5 6 -2 20 9 33 l17 24 33 -31 c18 -17 30 -35 27 -40 -3 -5 11 -24
32 -42 22 -19 37 -40 35 -46 -3 -7 0 -13 6 -13 6 0 11 -6 11 -13 0 -8 11 -20
25 -27 14 -7 23 -15 20 -18 -7 -8 17 -45 42 -66 13 -10 22 -25 19 -32 -3 -8 1
-14 9 -14 8 0 14 -6 12 -12 -1 -7 3 -12 10 -11 6 2 15 -6 18 -17 4 -11 10 -20
15 -20 5 0 7 -9 5 -20 -2 -11 0 -19 4 -17 4 1 22 -13 38 -30 17 -18 36 -33 42
-33 6 0 8 -7 5 -15 -4 -9 7 -27 27 -47 19 -17 33 -35 31 -40 -1 -5 24 -36 57
-70 39 -40 57 -66 54 -76 -4 -8 -2 -13 3 -10 11 6 45 -28 37 -36 -4 -3 -1 -6
6 -6 18 0 44 -28 39 -43 -5 -13 27 -49 35 -40 3 2 8 -5 12 -16 3 -12 13 -21
21 -21 8 0 14 -7 14 -16 0 -8 4 -13 9 -10 10 7 32 -17 35 -39 3 -19 112 -135
128 -135 5 0 8 -7 4 -15 -3 -10 25 -45 84 -104 50 -48 90 -93 90 -99 0 -14 52
-68 63 -64 4 1 7 -2 7 -8 0 -5 11 -20 24 -33 14 -14 22 -28 18 -33 -4 -4 -2
-4 4 -1 12 7 47 -25 39 -36 -3 -4 -2 -5 1 -3 9 7 102 -88 96 -98 -3 -5 -1 -6
5 -3 11 7 43 -27 43 -45 0 -6 34 -44 75 -85 41 -40 75 -78 75 -85 0 -6 3 -9 6
-5 9 9 44 -25 37 -37 -3 -6 -3 -8 1 -4 5 4 56 -42 116 -102 59 -60 110 -106
114 -103 3 4 6 0 6 -9 0 -8 15 -27 34 -43 19 -16 33 -33 30 -37 -3 -4 0 -8 6
-8 13 0 170 -157 170 -170 0 -5 7 -7 15 -3 11 4 52 -31 130 -111 63 -64 120
-116 126 -116 7 0 10 -3 6 -6 -7 -7 61 -74 73 -71 5 1 31 -22 59 -50 28 -29
56 -53 63 -53 6 0 9 -3 6 -6 -9 -9 42 -55 63 -57 11 -1 19 -4 19 -7 0 -10 101
-110 111 -110 6 0 8 -4 4 -9 -3 -6 4 -8 15 -6 11 2 18 0 15 -6 -4 -5 -2 -9 4
-9 13 0 70 -58 63 -65 -3 -3 0 -5 7 -5 7 0 22 -11 33 -25 11 -14 24 -23 29
-19 11 6 39 -19 39 -36 0 -6 4 -9 8 -6 5 3 15 -6 22 -20 8 -14 20 -22 27 -19
8 3 39 -20 73 -55 32 -34 62 -59 68 -58 5 2 23 -12 39 -29 17 -18 37 -33 43
-33 7 0 32 -19 55 -43 23 -24 49 -43 59 -41 9 1 16 -2 16 -6 0 -14 42 -50 78
-67 17 -8 32 -22 32 -29 0 -8 7 -14 15 -14 8 0 15 -3 15 -8 0 -4 13 -13 30
-20 16 -7 32 -22 35 -33 4 -10 15 -19 26 -19 11 0 35 -16 54 -36 24 -25 41
-34 52 -29 10 3 15 3 11 0 -8 -8 44 -64 55 -58 4 2 7 -1 7 -8 0 -7 3 -9 6 -6
4 4 14 -2 24 -13 9 -10 23 -20 30 -22 8 -2 30 -18 50 -35 19 -18 41 -33 48
-33 6 0 12 -4 12 -10 0 -5 7 -10 16 -10 8 0 12 -4 9 -10 -3 -6 4 -10 18 -10
15 0 28 -9 37 -24 7 -14 18 -22 25 -20 7 3 31 -13 53 -36 26 -27 43 -37 47
-30 5 8 11 4 19 -12 6 -12 17 -24 24 -24 7 -1 15 -3 20 -4 4 -1 11 -2 15 -1 5
1 6 -2 3 -7 -6 -9 23 -35 44 -40 8 -2 21 -11 29 -20 9 -9 25 -19 36 -20 11 -2
22 -8 23 -13 2 -5 10 -9 18 -9 8 0 14 -5 14 -11 0 -5 5 -7 10 -4 6 3 10 -1 10
-9 0 -9 8 -16 18 -16 10 0 29 -11 41 -24 13 -14 29 -22 36 -20 7 3 15 -2 19
-11 3 -9 11 -13 16 -10 6 4 9 1 8 -6 -2 -7 6 -15 17 -17 25 -5 56 -37 47 -47
-4 -4 3 -2 16 4 19 10 22 9 22 -9 0 -12 6 -20 13 -19 30 4 46 -2 52 -21 3 -11
15 -20 25 -20 10 0 22 -5 25 -11 4 -5 12 -8 18 -6 6 2 22 -8 35 -22 13 -14 30
-25 38 -23 8 2 14 -4 14 -12 0 -9 6 -13 14 -10 15 6 59 -30 49 -39 -3 -3 3 -4
14 -3 10 2 20 0 23 -5 3 -4 12 -9 20 -11 8 -2 27 -15 41 -29 14 -14 31 -23 37
-21 7 2 15 -4 18 -12 5 -12 10 -14 19 -6 10 8 15 6 20 -9 3 -11 13 -18 23 -17
9 2 27 -8 38 -22 12 -13 27 -21 33 -18 6 4 14 0 17 -8 3 -9 15 -16 25 -16 10
0 19 -5 19 -11 0 -6 6 -9 14 -6 8 3 22 -5 32 -19 11 -13 27 -24 37 -24 10 0
20 -6 23 -14 3 -8 13 -12 25 -9 13 4 19 0 19 -12 0 -12 5 -15 20 -10 12 4 20
2 20 -5 0 -10 43 -33 65 -34 6 -1 18 -8 28 -16 10 -8 22 -15 26 -15 5 0 18
-11 30 -23 11 -13 24 -21 29 -18 6 3 15 -1 22 -9 7 -8 16 -12 21 -9 5 3 12 -1
15 -10 3 -8 14 -13 25 -11 12 3 19 -2 19 -12 0 -10 6 -14 19 -10 12 3 22 -1
25 -9 3 -8 15 -14 26 -14 11 0 20 -4 20 -10 0 -5 9 -10 19 -10 11 0 21 -5 23
-10 2 -6 13 -12 25 -13 12 0 19 -5 17 -9 -5 -7 3 -10 22 -7 4 0 10 -4 14 -11
4 -6 17 -12 28 -13 12 -1 22 -8 22 -15 0 -9 7 -13 19 -9 12 3 22 -1 25 -10 3
-8 12 -13 18 -11 7 3 20 -5 30 -16 12 -15 17 -17 18 -7 0 11 3 11 13 -3 7 -9
22 -18 34 -19 12 0 21 -5 20 -11 -1 -5 11 -10 26 -10 15 -1 31 -6 35 -12 4 -6
15 -10 24 -9 9 2 19 -2 21 -9 3 -7 23 -18 46 -26 23 -7 41 -17 41 -23 0 -5 6
-7 13 -4 8 3 20 -3 27 -13 7 -10 19 -16 26 -13 8 3 16 -1 19 -9 3 -8 17 -13
35 -12 17 1 31 -4 34 -12 3 -7 12 -11 19 -8 8 3 17 -2 21 -11 3 -9 14 -15 23
-13 11 2 17 -2 15 -10 -1 -7 3 -12 10 -11 7 1 29 -5 48 -14 19 -8 39 -13 43
-10 5 3 15 -3 23 -13 9 -11 12 -12 8 -4 -4 9 3 6 17 -6 13 -12 30 -19 37 -17
6 3 12 -2 12 -10 0 -9 9 -13 25 -11 14 1 32 -5 41 -13 8 -8 18 -13 21 -9 3 3
13 0 21 -6 7 -7 24 -14 35 -15 12 -2 26 -8 31 -13 6 -6 18 -10 29 -10 10 0 15
-4 12 -10 -4 -6 8 -10 29 -10 20 0 36 -4 36 -10 0 -5 9 -10 19 -10 11 0 21 -4
23 -9 2 -5 14 -11 28 -13 14 -1 28 -7 31 -11 3 -4 15 -9 27 -10 11 0 18 -5 16
-9 -5 -8 -2 -9 34 -12 9 -1 27 -7 40 -14 12 -7 22 -10 22 -6 0 4 9 -3 19 -15
12 -14 22 -18 26 -11 4 7 17 4 39 -10 18 -11 36 -17 39 -13 4 3 16 -2 27 -12
15 -14 20 -15 20 -4 1 9 5 7 13 -6 8 -13 22 -20 40 -19 16 1 31 -5 34 -11 2
-7 18 -12 34 -11 19 1 29 -3 29 -12 0 -9 9 -12 30 -8 20 3 30 0 30 -8 0 -8 13
-13 32 -14 18 0 34 -6 36 -11 2 -6 12 -11 23 -11 11 0 22 -6 25 -14 3 -8 13
-12 26 -8 11 2 23 0 27 -6 4 -6 21 -12 39 -14 17 -1 34 -8 36 -15 3 -7 16 -10
30 -7 15 2 26 1 26 -4 0 -5 12 -14 26 -20 14 -7 23 -8 19 -2 -9 15 4 12 21 -4
7 -8 26 -13 41 -11 16 2 36 -4 45 -12 10 -9 28 -13 43 -11 17 4 25 1 25 -8 0
-8 3 -14 8 -15 4 -1 20 -2 35 -4 16 -1 32 -6 35 -11 11 -14 32 -15 32 -2 0 7
7 3 15 -10 13 -18 23 -21 51 -16 25 4 36 1 40 -9 3 -9 16 -14 30 -12 13 1 28
-3 34 -10 6 -7 22 -12 36 -12 15 0 29 -5 33 -11 3 -6 21 -10 39 -10 18 1 38
-4 44 -10 7 -7 29 -12 49 -12 23 0 39 -5 42 -14 4 -9 14 -12 28 -9 13 4 25 1
30 -9 5 -9 20 -13 41 -12 18 1 39 -2 46 -8 7 -6 25 -12 40 -12 15 -1 36 -7 47
-13 11 -6 31 -10 45 -9 14 1 33 -4 43 -13 9 -8 20 -11 24 -8 3 4 12 2 19 -4 8
-7 14 -7 19 1 4 7 14 3 26 -11 10 -12 19 -18 19 -13 0 14 51 9 60 -6 5 -7 18
-11 34 -8 15 3 29 1 32 -4 3 -4 10 -6 15 -3 5 4 9 1 9 -5 0 -6 5 -8 10 -5 5 3
10 1 10 -4 0 -13 22 -10 32 4 5 6 8 6 8 -2 0 -6 9 -10 20 -8 11 2 24 -3 28
-12 11 -18 22 -19 33 -1 6 9 9 9 9 1 0 -6 9 -10 19 -8 11 2 22 -2 24 -9 3 -8
20 -12 44 -11 21 1 47 -3 58 -9 11 -6 31 -11 45 -11 14 -1 35 -6 46 -13 12 -6
38 -11 58 -10 20 1 42 -4 48 -10 7 -7 33 -12 59 -12 26 0 49 -5 51 -11 2 -6
30 -10 63 -10 33 0 63 -5 66 -11 4 -6 26 -11 50 -11 24 0 47 -5 51 -10 3 -6
33 -11 66 -11 32 -1 65 -6 73 -13 8 -6 34 -10 59 -9 25 2 55 -3 66 -10 12 -7
36 -11 55 -10 19 2 42 -1 51 -5 10 -6 18 -5 20 2 3 8 9 7 19 -3 10 -10 32 -15
62 -14 26 0 47 -2 47 -6 0 -4 12 -3 26 2 14 6 23 6 20 2 -2 -4 4 -13 15 -20
15 -10 19 -10 19 0 0 9 3 9 11 1 6 -6 23 -8 45 -3 20 5 34 4 34 -2 0 -5 4 -7
9 -3 5 3 15 -1 23 -8 14 -14 46 -16 66 -4 7 5 12 4 12 -3 0 -7 6 -8 17 -1 10
5 26 5 40 0 13 -5 23 -6 23 -2 0 3 8 -1 18 -9 12 -11 39 -14 100 -13 53 1 85
-2 88 -9 3 -7 46 -11 120 -12 70 0 118 -4 122 -11 4 -6 49 -10 117 -9 73 1
118 -3 134 -12 17 -9 52 -12 98 -10 40 2 73 -1 73 -5 0 -5 5 -5 12 -1 17 11
108 10 108 0 0 -6 5 -5 11 1 12 12 52 5 43 -8 -3 -5 433 -9 1036 -9 692 0
1039 3 1035 10 -4 6 14 10 47 11 29 0 65 2 81 3 15 1 27 -2 27 -7 0 -4 5 -5
12 -1 14 9 124 8 138 -1 6 -4 10 -1 10 5 0 7 6 10 12 8 7 -3 18 0 24 6 6 7 57
11 132 10 82 0 122 3 122 10 0 8 38 11 113 11 66 -1 115 3 119 9 4 6 48 11 98
12 51 0 95 5 98 11 4 6 37 10 75 9 37 -1 67 2 67 7 0 4 5 5 10 2 6 -4 17 -1
25 5 8 6 19 9 24 6 5 -4 13 -2 16 4 5 8 11 8 20 0 9 -7 15 -8 19 -1 5 7 15 7
31 1 18 -7 25 -6 25 2 0 9 3 9 12 0 7 -7 17 -8 28 -2 12 7 23 3 39 -11 18 -17
25 -18 36 -9 8 7 15 8 15 4 0 -5 21 -8 48 -8 26 1 56 -3 67 -10 23 -14 83 -15
104 -2 9 6 12 5 8 -1 -5 -7 7 -10 34 -8 22 1 45 -3 52 -9 8 -8 48 -12 121 -11
71 1 110 -3 112 -10 3 -7 40 -12 102 -12 160 -1 174 -2 167 -13 -4 -6 42 -9
129 -7 81 1 136 -2 136 -7 0 -6 4 -6 10 0 12 12 72 6 64 -7 -9 -14 2059 -12
2074 3 8 8 60 11 169 10 106 -1 159 2 164 10 4 7 50 11 130 11 82 -1 129 4
139 12 10 8 52 11 123 10 72 0 107 3 107 10 0 8 32 11 95 10 69 -1 95 2 95 11
0 8 9 11 22 9 12 -3 26 1 30 8 6 9 10 9 17 -1 11 -17 21 -17 32 0 6 8 9 9 9 1
0 -12 17 -12 38 0 7 5 12 3 12 -5 1 -9 5 -8 13 4 8 10 24 15 40 14 15 -2 27 1
27 6 0 5 5 6 11 3 19 -12 68 -11 73 1 5 13 76 25 76 13 0 -4 14 -4 30 1 21 6
30 5 30 -3 0 -7 7 -3 15 7 11 15 28 20 70 21 30 0 55 -3 55 -9 0 -5 9 -1 20 9
15 14 37 19 80 19 36 0 61 5 64 12 3 7 27 11 65 10 33 -1 58 1 55 5 -4 8 32
16 80 18 17 1 32 5 35 9 3 5 33 10 66 11 33 1 61 6 63 12 2 5 28 9 58 9 38 0
54 4 54 13 0 10 12 13 44 10 27 -3 49 1 57 9 8 7 28 13 44 12 17 0 36 4 44 10
7 6 33 11 58 11 25 1 48 6 51 11 4 6 24 10 44 9 24 -1 39 4 43 13 4 10 14 13
35 8 17 -3 30 -1 30 4 0 5 6 7 13 4 7 -2 26 2 42 10 20 11 34 12 47 5 10 -5
18 -6 18 -1 0 15 52 34 60 22 4 -6 13 -4 26 7 21 20 74 26 74 9 0 -6 7 -1 15
11 11 16 22 20 44 17 17 -3 34 1 43 9 8 8 30 13 51 12 22 -1 38 4 41 12 3 7
20 12 41 11 21 -1 40 4 45 12 5 7 17 10 29 7 14 -3 26 1 33 12 7 12 20 16 45
13 21 -3 38 0 43 7 4 7 22 13 41 13 19 1 37 5 40 11 4 5 20 9 35 9 16 0 32 5
36 12 4 6 16 12 28 12 38 3 41 4 35 15 -5 7 4 9 28 5 23 -4 41 -1 49 7 7 7 24
13 37 14 13 1 31 9 40 17 12 11 20 13 28 5 8 -8 17 -4 33 13 13 12 19 16 15 8
-7 -12 -6 -13 7 -3 8 7 18 9 22 5 4 -4 13 0 19 8 15 19 37 24 37 9 0 -8 4 -9
13 0 8 6 17 8 21 3 4 -4 12 0 16 9 6 10 20 15 35 13 16 -1 28 3 32 12 3 9 14
12 30 10 15 -3 26 1 29 9 4 9 17 13 34 11 18 -2 31 2 34 10 3 8 19 14 36 14
16 0 30 5 30 10 0 6 9 10 20 10 11 0 23 6 26 14 3 8 12 12 20 9 8 -3 24 1 37
9 12 8 31 14 41 12 10 -1 25 4 33 12 9 8 23 12 33 9 10 -3 20 0 23 9 4 9 15
13 26 11 12 -2 28 3 36 11 8 9 19 13 24 9 5 -3 12 -1 16 5 3 5 15 15 27 21 16
8 19 8 13 -1 -5 -9 -1 -8 16 1 13 7 27 13 31 14 3 0 9 3 13 7 4 4 13 4 21 1 8
-3 14 -1 14 5 0 5 11 13 25 16 14 4 25 10 25 15 0 5 13 7 29 6 19 -2 32 3 36
13 3 8 8 12 12 9 3 -4 15 0 27 8 11 8 31 15 43 15 13 0 23 5 23 10 0 6 9 10
19 10 11 0 23 4 26 10 3 6 17 10 31 10 14 0 27 7 30 15 4 8 10 12 15 10 5 -3
19 1 32 10 13 8 26 12 29 9 4 -3 17 2 30 10 14 9 28 13 31 10 4 -4 9 0 12 8 4
10 17 15 35 13 16 -1 27 1 24 6 -3 5 0 10 5 10 6 1 16 2 21 3 6 0 15 8 20 16
5 8 12 11 16 8 4 -4 19 1 34 12 15 11 29 17 32 15 8 -8 78 24 78 36 0 5 4 8 9
4 5 -3 17 2 25 11 9 8 16 13 16 9 0 -3 10 0 23 7 12 7 33 14 47 16 14 2 27 7
28 13 2 5 12 9 22 9 10 0 20 5 22 10 2 6 13 12 25 13 12 0 19 5 17 9 -3 4 0 9
5 9 33 4 81 27 81 39 0 7 8 9 19 5 12 -3 21 0 25 10 4 10 14 14 31 11 14 -3
25 -1 25 4 0 4 14 13 30 19 17 5 30 15 30 20 0 6 6 8 13 5 8 -3 19 2 26 10 7
8 19 12 27 9 8 -3 14 -1 14 4 0 12 50 37 66 35 7 -1 14 4 18 13 3 8 15 15 26
15 11 0 20 5 20 10 0 6 9 10 20 10 11 0 20 5 20 11 0 6 6 9 14 6 8 -3 17 1 20
9 3 8 15 14 26 14 11 0 23 7 26 15 4 8 10 13 14 10 4 -3 29 7 54 21 25 14 46
22 46 17 0 -4 5 0 11 10 5 9 19 17 29 17 11 0 20 5 20 11 0 5 5 7 12 3 6 -4 8
-3 5 3 -4 6 0 16 7 22 10 8 16 9 21 1 4 -6 14 -2 26 12 12 13 18 16 14 8 -4
-9 2 -6 12 5 10 11 25 21 33 23 8 2 17 8 18 13 2 5 8 6 13 3 6 -3 19 2 29 11
10 9 24 14 29 10 6 -3 11 1 11 9 0 9 7 13 18 11 11 -2 26 7 37 21 10 13 26 24
36 24 11 0 19 5 19 10 0 6 7 10 16 10 8 0 22 7 30 15 8 8 21 12 29 9 9 -4 15
0 15 8 0 8 12 21 28 28 15 8 36 21 46 30 17 13 18 13 11 0 -6 -10 -2 -10 12 3
11 10 24 17 29 15 5 -1 22 10 38 26 22 23 30 26 37 15 7 -11 9 -11 9 4 0 9 5
18 10 18 6 1 14 2 20 3 5 0 17 11 26 24 9 13 22 21 29 18 8 -3 19 2 25 10 7 8
21 14 31 14 11 0 19 6 19 14 0 13 27 31 43 27 4 0 10 6 13 14 3 8 10 13 15 10
11 -8 49 17 49 32 0 6 9 10 19 8 11 -2 22 3 25 11 3 9 10 13 15 9 5 -3 21 6
35 20 14 14 35 25 46 25 12 0 19 4 16 8 -6 10 30 43 38 35 3 -4 17 6 30 20 13
14 26 23 29 20 6 -5 27 10 54 39 9 9 22 14 29 11 8 -3 14 0 14 6 0 6 6 11 13
11 7 0 24 10 37 22 13 12 29 23 36 24 7 1 22 12 34 24 12 12 28 19 36 16 8 -3
12 -2 9 4 -3 5 4 14 15 20 11 6 18 15 15 20 -3 6 1 7 10 4 10 -4 28 6 51 30
19 20 40 34 45 31 5 -4 12 1 15 9 3 9 10 13 15 10 5 -3 9 2 9 10 0 10 9 16 23
16 15 0 29 9 37 24 7 14 18 22 25 20 14 -6 66 41 57 50 -5 6 0 7 35 10 6 1 21
12 32 25 12 13 25 20 32 15 8 -4 9 -3 5 4 -4 7 -2 12 4 12 6 0 25 14 42 30 16
17 33 28 37 25 5 -2 21 11 37 30 18 22 38 35 52 35 13 0 21 3 19 8 -5 9 30 42
37 34 3 -3 6 2 6 12 0 13 5 16 19 11 14 -4 21 0 26 15 4 12 9 19 13 16 3 -4
14 6 24 21 10 16 18 23 18 16 0 -7 7 -10 15 -7 8 4 12 11 8 17 -4 6 0 8 11 4
9 -4 15 -3 11 2 -3 6 1 13 9 18 8 4 15 13 15 18 1 6 9 10 19 10 9 0 35 19 57
42 22 24 46 43 54 43 7 0 27 15 43 32 17 18 36 33 42 33 17 0 47 31 38 40 -4
4 -2 5 4 3 12 -3 70 52 66 64 -1 4 5 5 14 1 9 -3 29 10 55 36 21 23 53 47 69
53 17 5 28 14 25 18 -3 5 4 11 15 15 11 3 20 10 20 14 0 15 65 78 77 74 6 -2
19 7 29 20 11 13 24 25 29 26 6 2 9 7 7 12 -1 5 2 9 8 9 13 0 60 48 60 62 0 5
7 8 15 4 14 -5 55 29 55 46 0 5 3 7 8 5 4 -2 26 15 49 39 22 24 38 44 35 44
-4 0 5 8 18 17 14 10 28 17 31 16 10 -3 159 144 159 157 0 5 3 9 8 8 9 -3 72
58 72 71 0 6 7 7 17 4 9 -4 14 -2 11 3 -4 5 10 25 29 44 20 19 33 29 29 23
-15 -27 6 -10 81 63 43 42 77 80 75 85 -1 5 3 9 8 9 6 0 24 13 39 29 16 16 32
27 35 24 3 -4 6 0 6 8 0 8 16 27 35 43 19 16 32 33 29 37 -3 5 0 9 6 9 15 0
126 110 122 122 -1 4 4 8 12 8 8 0 16 7 20 15 3 8 13 15 22 15 10 0 15 3 11 6
-3 3 5 16 18 29 14 12 22 25 18 28 -3 4 0 7 7 7 15 0 150 135 150 150 0 6 15
25 33 43 17 17 31 35 29 39 -1 4 2 8 7 8 13 0 191 177 191 190 0 6 4 9 8 6 14
-8 38 27 34 49 -2 11 -1 17 2 14 10 -10 167 150 169 172 1 10 4 19 8 19 10 0
77 69 72 74 -3 2 5 7 16 11 12 3 19 10 16 15 -3 4 2 11 11 14 9 3 14 12 11 19
-3 7 8 22 24 33 16 10 29 22 29 26 0 4 15 22 33 40 18 18 39 45 46 60 8 15 18
25 23 22 4 -3 8 0 8 6 0 7 11 21 25 32 14 11 24 25 23 32 -2 6 22 36 52 65 30
30 55 59 55 66 0 7 19 30 43 53 23 22 42 46 42 52 0 14 56 71 62 64 3 -2 5 7
4 21 0 13 3 26 8 27 24 7 61 54 57 72 -3 13 0 17 7 12 7 -4 12 0 12 10 0 10 3
14 7 11 5 -6 38 30 38 43 0 13 33 49 38 43 4 -3 7 1 7 9 0 9 7 19 16 22 8 3
13 10 9 16 -3 5 9 23 27 41 18 17 32 35 30 40 -1 5 14 25 34 44 25 24 34 41
29 52 -3 10 -3 15 0 11 8 -8 51 34 47 46 -1 4 8 18 22 31 14 13 22 26 19 29
-4 3 2 6 11 6 11 0 16 5 13 13 -3 7 6 23 19 36 13 13 24 29 24 36 0 8 9 20 20
28 11 8 17 17 13 20 -3 4 -1 7 6 7 7 0 9 5 6 10 -7 12 18 40 35 40 7 0 9 7 6
16 -4 10 6 27 28 47 18 18 36 42 40 55 4 12 16 27 27 33 12 6 18 17 15 24 -3
8 6 23 21 34 15 13 23 27 19 36 -3 9 0 15 10 15 11 0 15 6 11 19 -3 13 3 23
20 32 18 10 23 19 20 36 -2 12 -1 20 4 17 10 -6 50 37 46 51 -5 13 29 45 39
37 4 -4 5 3 2 15 -4 13 0 24 8 27 8 3 20 18 26 33 7 15 18 34 25 41 7 7 9 20
6 30 -3 9 -3 14 1 10 9 -8 50 31 42 40 -3 3 1 14 11 24 9 10 14 21 10 24 -3 3
5 16 18 28 13 11 26 28 27 36 2 8 10 20 18 27 11 9 12 12 2 13 -7 0 0 12 15
26 15 14 29 30 29 35 1 5 2 14 3 19 0 6 9 10 19 10 13 0 14 2 4 9 -11 7 -11
11 2 24 9 8 16 21 16 27 0 6 5 8 11 4 7 -4 10 1 7 12 -2 10 5 27 15 37 10 10
15 22 12 26 -2 5 2 11 10 15 9 3 12 12 8 22 -4 12 -3 15 5 10 7 -4 12 -1 12 7
0 8 7 17 15 21 8 3 15 15 15 26 0 11 5 20 11 20 6 0 9 6 6 14 -3 8 1 17 9 20
9 3 13 10 10 15 -3 4 7 22 23 39 16 17 27 33 24 36 -3 3 2 12 10 21 9 8 14 22
11 30 -4 9 0 15 10 15 10 0 16 9 16 23 0 13 5 28 12 35 7 7 8 12 4 12 -5 0 2
9 15 20 17 14 20 20 9 20 -13 1 -13 2 0 13 8 7 21 24 27 40 7 15 19 27 26 27
9 0 13 9 12 25 -2 14 1 23 6 19 5 -3 10 0 10 5 1 6 2 16 3 21 0 6 6 14 12 18
6 4 10 15 8 25 -1 10 4 17 13 17 10 0 14 6 10 20 -3 11 -1 20 4 20 7 0 38 60
38 76 0 2 7 12 16 20 8 9 13 20 9 25 -3 5 1 12 10 15 8 3 13 14 11 25 -3 12 2
19 12 19 9 0 13 3 10 6 -3 4 -1 16 5 28 7 11 12 25 13 29 0 5 8 15 18 22 12 8
14 14 6 17 -8 3 -6 9 5 21 10 9 18 26 19 36 0 11 4 18 8 15 4 -2 10 7 13 21 4
14 11 25 16 25 5 0 7 10 5 22 -3 12 3 30 12 40 9 10 12 18 8 18 -4 0 -1 8 7
18 16 17 28 49 27 66 0 5 6 13 15 18 9 5 16 18 16 28 0 11 5 20 10 20 6 0 10
9 10 19 0 11 6 21 12 23 7 3 11 18 10 37 -1 18 2 30 7 27 5 -4 12 7 16 24 4
17 11 27 16 24 6 -3 9 0 8 7 -4 23 12 49 25 42 6 -4 5 1 -3 10 -11 14 -11 18
3 23 12 5 16 15 12 35 -2 18 0 28 7 26 6 -1 11 3 12 8 0 6 8 24 18 41 9 17 13
35 9 39 -4 3 0 5 8 3 12 -2 15 6 13 34 -1 23 2 37 9 35 6 -1 12 7 14 17 1 10
7 22 12 25 5 3 8 18 8 34 -1 16 4 27 11 27 7 0 13 11 13 26 0 17 4 23 12 18 7
-5 9 -2 6 7 -3 9 2 33 12 54 10 22 16 44 13 49 -4 5 -1 6 4 3 13 -8 24 18 17
38 -4 8 1 17 10 21 9 3 13 11 10 16 -4 6 -1 14 6 18 7 4 14 19 14 33 1 14 7
31 14 40 7 8 11 21 10 28 -2 8 2 13 8 12 6 -1 11 11 12 28 0 16 8 36 17 45 11
11 13 20 6 27 -11 11 -3 39 10 31 5 -3 9 0 9 5 0 22 1 26 13 46 7 11 13 27 12
35 0 8 4 18 9 22 6 4 10 19 11 35 0 15 6 27 12 26 6 -1 10 10 9 28 -1 18 4 33
12 38 9 5 13 17 9 30 -3 12 1 28 10 37 8 8 13 18 9 21 -3 3 1 11 9 17 8 6 16
25 17 43 1 17 6 29 10 27 8 -5 12 17 8 50 -1 11 3 15 9 12 11 -7 12 -3 15 41
0 12 5 25 10 30 5 5 6 2 1 -6 -5 -9 -4 -12 2 -8 6 4 9 17 9 29 -1 13 3 32 8
43 6 11 12 31 12 45 3 48 4 51 15 45 6 -4 10 -1 8 6 -4 35 2 59 16 59 18 0 19
12 4 27 -7 7 -6 15 5 25 8 8 17 29 19 47 3 18 10 37 15 44 5 7 8 22 6 34 -2
12 2 28 9 35 7 7 12 22 12 33 0 11 6 28 13 37 8 9 11 25 8 36 -4 13 -1 22 9
26 11 4 15 17 13 43 -1 22 3 38 10 41 7 2 12 22 12 48 0 30 4 44 14 44 9 0 12
8 8 26 -3 16 1 29 9 34 7 5 13 25 12 45 0 20 5 39 11 41 7 3 11 19 11 37 -1
17 5 42 13 54 8 13 12 30 8 38 -6 18 3 47 13 40 4 -2 7 10 6 27 -1 18 7 47 17
65 11 18 16 33 11 33 -5 0 -9 11 -9 24 0 14 3 23 7 20 10 -6 22 34 21 68 0 14
5 29 12 31 9 4 12 18 9 41 -2 24 1 38 10 42 8 3 13 21 12 52 -1 27 4 52 12 60
8 8 11 27 8 53 -4 30 -1 41 10 45 10 4 15 18 14 38 -3 48 0 56 16 56 12 0 13
5 7 18 -11 22 -6 73 8 82 7 4 11 10 11 14 -5 38 1 106 9 101 11 -7 13 0 11 69
0 28 4 53 10 57 7 4 13 29 14 55 4 65 4 66 13 60 5 -3 8 19 6 49 -1 33 2 60 9
68 7 6 13 39 13 72 1 42 5 59 13 57 8 -2 11 7 8 28 -3 17 -1 30 5 30 7 0 7 4
1 13 -12 15 -8 59 8 89 8 13 12 28 10 33 -3 9 -4 75 -2 103 1 6 7 12 14 12 7
0 13 9 13 20 0 11 -4 20 -8 20 -4 0 -4 10 1 23 5 14 5 30 0 40 -7 11 -6 17 0
17 6 0 8 6 5 14 -3 7 1 16 8 18 10 4 13 28 11 92 -1 60 1 85 9 83 8 -1 12 27
13 91 0 53 5 96 11 100 6 4 10 48 9 110 0 69 3 102 11 102 7 0 11 42 10 140
-1 102 2 140 11 140 9 0 12 45 11 172 0 119 3 173 11 176 16 5 16 2059 0 2064
-7 2 -11 60 -11 176 0 101 -4 170 -9 166 -10 -6 -11 3 -11 146 0 66 -4 108
-11 112 -7 4 -11 48 -11 120 -1 71 -5 117 -12 125 -6 7 -10 26 -9 43 1 17 -1
33 -6 36 -5 3 -6 11 -2 17 12 20 10 89 -3 94 -8 3 -12 29 -10 83 1 59 -2 81
-12 85 -7 3 -11 9 -7 14 3 5 1 12 -5 16 -5 3 -10 11 -10 16 0 6 4 8 8 5 10 -6
9 35 -1 52 -5 6 -4 12 0 12 5 0 9 9 9 19 0 11 -4 18 -7 15 -17 -10 -20 7 -19
134 0 12 -7 25 -14 28 -9 3 -13 14 -9 27 5 24 5 29 0 67 -2 14 2 31 7 39 8 11
8 13 -1 8 -18 -11 -30 22 -28 76 2 29 -3 53 -11 61 -8 9 -12 32 -9 70 2 41 0
56 -10 56 -9 0 -12 16 -11 55 2 38 -2 55 -10 55 -9 0 -13 19 -13 62 1 36 -4
64 -10 66 -6 2 -11 28 -11 57 0 33 -5 55 -12 57 -7 3 -12 24 -13 54 0 28 -4
48 -10 47 -6 -1 -10 17 -9 43 1 27 -3 44 -10 44 -6 0 -11 17 -10 43 0 23 -5
53 -12 67 -6 14 -9 31 -6 39 3 9 0 11 -8 6 -10 -6 -11 -4 -4 6 12 20 11 42 -4
57 -6 8 -10 28 -8 47 3 26 0 34 -14 38 -16 4 -17 10 -10 40 6 28 4 37 -7 41
-8 4 -13 13 -9 21 3 8 2 15 -3 15 -4 0 -8 7 -8 15 0 8 4 15 9 15 4 0 0 9 -9
20 -9 10 -17 32 -18 47 -2 15 -7 39 -12 53 -5 14 -8 35 -7 48 1 13 -4 26 -11
28 -6 3 -11 17 -10 32 1 15 -4 37 -11 49 -8 12 -12 36 -10 53 2 21 -1 33 -10
37 -8 3 -14 10 -13 17 4 30 -2 57 -11 51 -6 -4 -10 11 -10 39 0 26 -5 46 -12
48 -7 3 -11 19 -10 41 2 26 -2 39 -12 43 -11 4 -13 14 -9 36 4 22 3 29 -5 24
-11 -7 -13 -3 -16 42 0 9 -6 22 -12 29 -7 7 -11 28 -9 47 1 21 -3 34 -9 33 -6
-1 -11 10 -11 24 0 14 -6 33 -14 42 -7 9 -11 26 -8 38 4 15 0 23 -12 26 -13 3
-16 12 -13 32 2 15 -2 34 -10 42 -7 8 -13 28 -13 44 1 17 -6 35 -14 42 -13 9
-13 14 -4 24 10 10 8 16 -6 28 -10 9 -17 26 -16 39 1 13 -3 26 -10 30 -6 4
-12 17 -12 30 -1 40 -3 43 -14 36 -8 -5 -10 3 -7 26 3 21 0 34 -9 37 -7 3 -13
14 -13 24 0 10 -4 19 -10 19 -5 0 -10 13 -10 29 0 16 -6 34 -14 40 -7 6 -12
22 -11 35 2 14 -3 27 -11 30 -8 3 -12 15 -11 28 2 12 -2 29 -10 36 -7 7 -11
24 -9 38 3 17 0 24 -11 24 -9 0 -13 6 -10 14 3 8 -3 25 -14 37 -12 14 -16 25
-10 27 7 2 3 14 -9 29 -14 17 -17 30 -10 37 6 8 3 17 -10 26 -14 10 -16 17 -9
26 7 9 5 14 -9 18 -13 5 -18 14 -16 31 1 14 -3 31 -9 38 -7 7 -13 19 -15 27
-2 8 -7 17 -12 20 -5 3 -7 18 -6 33 3 22 0 27 -12 22 -10 -4 -13 0 -9 14 5 20
-15 46 -26 35 -4 -4 -2 7 3 25 6 22 5 31 -3 31 -7 0 -17 11 -24 25 -8 19 -8
24 0 19 7 -3 5 0 -3 8 -8 7 -15 25 -14 40 1 15 -4 26 -10 25 -6 -1 -10 8 -8
22 2 15 0 21 -7 17 -11 -7 -12 -4 -15 34 0 12 -8 25 -16 30 -8 5 -11 12 -7 16
4 4 -3 19 -15 32 -13 14 -17 22 -10 18 7 -4 4 7 -7 26 -10 18 -17 41 -16 51 2
10 -3 17 -11 17 -9 0 -13 4 -9 9 3 5 -1 15 -8 23 -8 7 -13 21 -11 30 1 9 -5
19 -13 22 -8 3 -12 10 -9 15 3 5 0 14 -8 20 -7 6 -13 23 -13 38 0 15 -6 29
-12 31 -6 2 -11 12 -11 23 0 10 -4 19 -10 19 -5 0 -10 9 -10 20 0 11 -4 20
-10 20 -5 0 -10 12 -10 26 0 14 -4 23 -10 19 -10 -6 -14 7 -11 31 1 7 -6 14
-14 18 -9 3 -13 10 -10 16 3 6 0 13 -9 16 -9 4 -13 15 -11 34 3 19 -1 30 -12
34 -9 4 -13 14 -10 25 3 13 -1 21 -14 24 -13 3 -17 11 -13 21 4 10 0 18 -10
22 -9 3 -13 10 -10 16 3 5 -2 18 -12 29 -9 10 -14 19 -9 19 4 0 1 7 -6 16 -7
9 -14 23 -15 32 -2 8 -8 18 -14 22 -6 4 -10 13 -8 21 2 8 -3 13 -11 11 -9 -2
-12 4 -8 17 3 12 -1 22 -10 25 -8 4 -13 13 -9 21 3 8 1 15 -5 15 -6 0 -7 5 -4
10 3 6 -1 10 -9 10 -10 0 -13 6 -10 15 4 8 -1 17 -9 21 -8 3 -13 13 -10 23 3
11 -2 21 -11 24 -9 4 -13 13 -10 20 3 8 -2 17 -11 21 -10 3 -15 13 -12 20 3 8
-1 17 -9 20 -9 3 -13 10 -10 14 3 5 -2 18 -12 28 -9 11 -24 28 -32 39 -13 17
-13 18 0 11 8 -4 6 1 -5 11 -11 10 -19 26 -17 37 3 11 0 16 -7 12 -10 -6 -15
5 -13 26 1 3 -5 11 -13 18 -7 6 -11 18 -8 26 3 8 0 14 -6 14 -11 0 -34 43 -36
67 0 6 -9 20 -20 30 -12 10 -29 37 -39 61 -11 23 -23 42 -27 42 -5 0 -6 6 -3
14 3 7 -6 22 -19 32 -13 11 -23 27 -21 37 1 10 -4 17 -13 17 -11 0 -14 7 -11
25 3 14 1 23 -6 22 -5 -1 -10 4 -11 11 0 7 -11 25 -25 39 -13 14 -25 32 -27
41 -1 9 -7 18 -13 20 -5 2 -8 8 -5 12 3 5 -6 20 -21 35 -14 14 -23 32 -20 40
3 9 -1 15 -9 15 -10 0 -15 10 -15 27 0 14 -3 24 -6 20 -10 -9 -30 15 -38 46
-3 15 -11 27 -16 27 -6 0 -10 7 -10 16 0 9 -7 22 -14 28 -8 6 -16 17 -18 25
-2 8 -15 27 -30 42 -18 19 -25 35 -21 46 4 11 3 14 -5 9 -8 -4 -12 0 -12 12 0
10 -11 28 -25 40 -14 13 -23 27 -20 32 4 6 -1 13 -9 16 -9 3 -16 13 -16 21 0
8 -5 11 -11 7 -6 -4 -9 1 -7 12 1 11 -1 20 -6 21 -13 3 -35 37 -36 56 0 10 -4
15 -10 12 -5 -3 -10 0 -10 9 0 8 -4 16 -9 18 -5 2 -11 10 -13 18 -2 8 -13 23
-25 32 -13 11 -20 27 -18 38 2 11 -1 19 -8 17 -7 -1 -12 5 -12 13 0 8 -16 31
-35 51 -19 20 -36 43 -38 50 -2 8 -8 16 -13 17 -5 2 -9 10 -9 18 0 9 -5 12
-12 8 -8 -5 -9 -2 -5 10 4 10 1 19 -8 22 -8 4 -15 12 -15 20 0 8 -4 14 -9 14
-5 0 -12 11 -15 25 -4 14 -13 25 -21 25 -14 0 -20 12 -16 33 1 4 -15 24 -35
43 -21 19 -34 37 -31 40 3 3 -7 18 -24 33 -23 21 -26 30 -17 39 9 9 9 12 -4
12 -16 0 -65 57 -60 72 1 5 -5 11 -13 14 -8 4 -15 13 -15 22 0 8 -3 13 -6 9
-9 -9 -34 19 -34 37 0 9 -4 16 -10 16 -5 0 -10 6 -10 14 0 8 -9 18 -20 21 -11
3 -20 15 -20 25 0 10 -15 31 -33 46 -34 31 -37 35 -37 60 0 8 -3 13 -7 11 -10
-5 -43 30 -36 37 4 3 -1 6 -9 6 -10 0 -14 8 -13 25 2 13 0 23 -4 22 -5 -1 -22
12 -38 30 -17 18 -34 29 -38 25 -4 -4 -6 3 -3 14 4 16 -4 30 -33 55 -21 18
-35 37 -32 42 3 5 -14 26 -38 48 -24 21 -39 39 -34 39 6 0 -2 8 -16 18 -15 9
-25 25 -23 35 1 9 -2 17 -6 17 -13 0 -59 48 -52 54 3 3 -2 6 -11 6 -11 0 -17
8 -17 23 0 13 -12 30 -30 42 -16 11 -30 25 -30 31 0 11 -28 28 -41 26 -3 0 -6
6 -6 14 0 14 10 18 35 15 6 -1 12 5 12 14 0 9 5 13 11 10 5 -4 19 1 30 11 10
9 19 14 19 9 0 -4 11 0 25 9 14 9 30 14 34 11 5 -3 15 0 23 7 7 7 20 14 28 16
8 2 18 8 21 14 4 6 14 8 23 5 10 -4 16 -1 16 8 0 8 9 15 20 15 20 0 70 43 70
60 0 6 4 10 10 10 12 0 60 48 60 60 0 6 6 10 13 10 17 0 60 64 46 69 -6 2 -1
13 11 26 14 15 18 25 11 30 -6 3 -8 11 -5 17 6 9 8 80 4 103 -1 6 -1 15 0 20
3 12 2 86 0 100 -1 6 -1 15 0 20 6 27 4 75 -2 75 -4 0 -3 12 2 26 8 19 6 29
-5 40 -14 14 -19 29 -16 46 0 5 -4 7 -11 5 -7 -1 -12 5 -13 14 0 9 -42 57 -92
108 -51 51 -93 95 -93 99 0 4 -10 9 -22 9 -13 1 -24 7 -26 12 -2 5 -9 8 -16 5
-8 -3 -16 2 -20 11 -3 9 -14 15 -23 14 -10 0 -20 -1 -23 0 -19 7 -110 5 -110
-2 0 -4 -5 -5 -11 -1 -14 8 -124 8 -138 0 -6 -4 -11 -3 -11 1 0 5 -9 9 -20 10
-11 1 -20 -3 -20 -8 0 -6 -5 -7 -11 -4 -16 11 -69 12 -69 2 0 -4 -5 -5 -10 -2
-6 3 -13 0 -16 -8 -3 -8 -13 -13 -23 -10 -11 3 -22 -5 -30 -21 -11 -20 -17
-23 -32 -15 -16 8 -19 6 -19 -11 0 -12 -4 -19 -9 -15 -13 7 -91 -34 -98 -51
-3 -8 -14 -14 -24 -14 -11 0 -22 -6 -25 -14 -3 -8 -11 -13 -18 -10 -7 3 -18
-2 -25 -10 -7 -8 -19 -12 -27 -9 -8 3 -14 -1 -14 -10 0 -9 -9 -14 -22 -13 -14
1 -22 -4 -20 -12 1 -7 -3 -12 -10 -11 -16 2 -78 -23 -78 -32 0 -3 -10 -6 -22
-5 -13 1 -22 7 -21 14 2 7 -1 12 -6 12 -14 0 -80 67 -73 75 4 4 2 5 -3 3 -12
-4 -181 162 -178 174 2 4 -2 8 -8 8 -15 0 -99 86 -92 94 4 3 1 6 -6 6 -7 0
-48 37 -92 81 -43 45 -79 76 -79 68 0 -7 -36 24 -79 69 -44 45 -84 82 -91 82
-6 0 -9 3 -7 8 5 9 -30 42 -37 35 -3 -4 -6 -1 -6 6 0 15 -86 101 -101 101 -7
0 -51 40 -99 88 -48 48 -92 86 -97 85 -9 -3 -19 5 -73 65 -17 17 -33 32 -36
32 -4 0 -13 8 -20 18 -7 9 -16 17 -21 18 -19 2 -42 17 -38 24 3 5 -4 12 -15
15 -12 4 -26 18 -32 31 -6 13 -15 24 -19 24 -4 0 -14 7 -22 15 -8 8 -21 16
-28 17 -8 2 -31 21 -52 43 -20 22 -42 41 -47 41 -6 1 -14 2 -20 3 -5 0 -10 8
-10 16 0 8 -4 15 -10 15 -5 0 -27 18 -49 40 -22 22 -44 39 -49 38 -5 -2 -23
12 -39 30 -17 17 -37 32 -45 32 -8 0 -32 20 -54 44 -23 25 -46 42 -56 40 -10
-1 -18 4 -18 12 0 8 -7 14 -15 14 -8 0 -15 5 -15 10 0 19 -24 37 -42 32 -10
-2 -18 1 -18 8 0 14 -49 55 -65 55 -5 0 -23 15 -39 33 -16 17 -35 32 -43 32
-7 0 -28 16 -47 35 -20 19 -39 34 -43 33 -5 -2 -25 14 -46 35 -20 21 -37 33
-37 27 0 -7 -12 1 -27 17 -16 16 -34 28 -40 26 -7 -3 -16 2 -19 11 -3 9 -12
16 -19 16 -8 0 -17 9 -20 21 -4 12 -12 18 -21 15 -8 -3 -17 1 -20 9 -4 8 -12
15 -20 15 -8 0 -14 5 -14 10 0 6 -7 10 -15 10 -8 0 -15 5 -15 10 0 6 -6 10
-14 10 -8 0 -16 4 -18 9 -1 5 -9 11 -17 13 -8 2 -28 17 -45 34 -17 16 -43 35
-58 42 -16 6 -28 18 -28 26 0 10 -6 13 -16 9 -10 -4 -24 4 -39 21 -13 16 -29
25 -35 21 -5 -3 -13 1 -16 9 -3 9 -13 16 -21 16 -8 0 -11 5 -7 12 5 8 2 9 -10
5 -10 -4 -19 -1 -22 8 -4 8 -15 15 -25 15 -10 0 -19 5 -19 11 0 5 -4 7 -10 4
-5 -3 -10 -1 -10 5 0 6 -12 15 -27 21 -15 5 -33 19 -41 30 -8 12 -20 18 -29
15 -9 -4 -17 1 -20 14 -3 11 -9 17 -14 14 -5 -3 -9 0 -9 6 0 6 -4 9 -9 6 -11
-7 -57 33 -53 46 1 5 -6 7 -18 3 -13 -4 -22 -1 -26 9 -3 8 -11 12 -19 10 -7
-3 -22 7 -33 21 -12 15 -25 24 -30 21 -6 -3 -15 1 -22 9 -7 8 -20 15 -30 15
-10 0 -20 7 -24 15 -3 8 -17 20 -31 25 -14 5 -25 14 -25 19 0 6 -7 8 -15 5 -8
-3 -26 6 -40 20 -14 14 -37 29 -51 32 -14 4 -37 17 -51 30 -14 13 -29 21 -33
19 -4 -3 -11 2 -14 11 -4 10 -14 14 -26 11 -11 -3 -18 -1 -14 4 3 5 -2 9 -10
9 -9 0 -16 5 -16 11 0 5 -4 8 -10 4 -12 -7 -51 31 -42 41 4 4 -3 5 -15 2 -14
-4 -24 0 -27 9 -4 8 -13 13 -20 10 -8 -3 -17 1 -20 9 -3 8 -14 14 -24 14 -10
0 -28 11 -40 25 -14 16 -27 22 -38 18 -12 -4 -15 -3 -10 5 7 11 -6 17 -27 13
-4 -1 -14 4 -22 11 -33 30 -42 35 -58 32 -9 -1 -17 4 -17 12 0 8 -6 14 -12 12
-19 -3 -98 40 -105 57 -3 8 -10 12 -16 8 -5 -3 -16 2 -23 12 -7 10 -20 15 -29
12 -9 -4 -15 -1 -15 8 0 8 -3 14 -7 14 -25 -4 -43 2 -37 13 5 8 2 9 -9 5 -9
-3 -19 -2 -22 3 -3 6 -28 20 -56 31 -27 12 -49 26 -49 31 0 5 -5 6 -11 2 -6
-3 -15 -1 -19 5 -4 7 -17 13 -28 14 -12 1 -22 8 -22 16 0 8 -3 11 -6 8 -4 -3
-16 -1 -28 5 -11 7 -25 12 -29 13 -4 0 -12 6 -16 14 -5 7 -13 11 -18 8 -6 -4
-19 2 -30 13 -16 14 -23 16 -33 7 -9 -8 -11 -8 -7 -1 4 7 -6 17 -23 24 -17 7
-30 16 -30 19 0 4 -10 7 -22 7 -32 0 -90 28 -81 39 5 4 -2 6 -14 3 -13 -4 -24
0 -27 8 -3 8 -15 14 -26 14 -11 0 -20 5 -20 10 0 6 -9 10 -20 10 -11 0 -20 5
-20 10 0 6 -9 10 -19 10 -11 0 -21 4 -23 9 -1 6 -15 11 -29 13 -15 2 -33 9
-41 16 -8 6 -18 9 -21 6 -3 -4 -13 1 -22 10 -9 9 -20 14 -25 11 -4 -3 -10 2
-14 10 -3 8 -15 15 -26 15 -11 0 -20 5 -20 11 0 6 -7 9 -15 5 -8 -3 -15 0 -15
7 0 8 -4 7 -10 -3 -8 -12 -10 -12 -16 3 -3 9 -10 14 -15 11 -5 -3 -9 0 -9 6 0
6 -4 9 -9 6 -5 -3 -14 1 -21 9 -6 7 -18 11 -26 8 -8 -3 -14 1 -14 10 0 11 -7
15 -21 12 -18 -4 -71 17 -89 35 -3 3 -16 6 -29 8 -13 2 -39 12 -57 23 -19 10
-46 19 -59 19 -14 0 -25 5 -25 10 0 6 -7 10 -16 10 -8 0 -22 6 -30 14 -8 9
-25 13 -40 10 -16 -3 -23 -1 -19 6 3 5 1 11 -4 11 -6 1 -16 2 -21 3 -6 0 -14
6 -18 11 -4 6 -16 10 -27 9 -11 0 -28 6 -37 14 -9 8 -22 11 -27 7 -6 -3 -11
-2 -11 3 0 5 -11 14 -25 20 -19 9 -25 9 -25 -1 -1 -8 -5 -7 -13 3 -7 9 -19 15
-27 15 -8 -1 -26 6 -39 14 -13 8 -31 16 -39 17 -8 2 -18 7 -21 12 -3 5 -14 8
-24 6 -9 -1 -23 3 -30 10 -6 6 -21 11 -32 11 -11 0 -27 6 -37 13 -9 7 -22 12
-30 11 -25 -3 -39 1 -33 10 3 5 -9 9 -27 9 -17 -1 -34 4 -36 10 -2 7 -12 12
-23 12 -10 0 -19 5 -19 10 0 6 -13 10 -29 10 -16 0 -34 6 -40 14 -7 8 -23 13
-36 10 -14 -2 -25 2 -28 10 -4 9 -15 13 -30 10 -15 -2 -27 1 -30 9 -3 8 -18
13 -36 12 -16 -1 -28 1 -26 5 6 9 -41 30 -49 22 -13 -12 -37 -10 -43 4 -3 8
-18 14 -33 14 -15 0 -33 6 -39 14 -7 8 -21 12 -31 9 -12 -3 -22 1 -26 11 -4
11 -11 13 -22 7 -10 -6 -20 -4 -30 5 -7 8 -18 12 -23 9 -5 -4 -9 -2 -9 3 0 5
-11 8 -25 6 -14 -1 -31 3 -38 10 -7 7 -20 12 -30 10 -9 -1 -23 3 -30 10 -6 7
-29 12 -49 11 -24 0 -40 5 -43 13 -3 8 -12 11 -20 8 -8 -3 -15 -1 -15 5 0 6
-5 7 -10 4 -6 -4 -17 -2 -23 4 -7 5 -30 11 -50 13 -20 1 -37 6 -37 10 0 4 -13
8 -29 8 -16 0 -31 6 -34 13 -3 8 -21 12 -45 11 -23 0 -39 3 -36 8 5 8 -1 9
-56 12 -17 0 -34 7 -39 14 -4 7 -19 11 -33 8 -14 -2 -34 1 -44 8 -11 7 -34 12
-51 11 -23 -1 -33 3 -33 13 0 8 -6 12 -15 8 -8 -3 -15 0 -15 6 0 7 -4 7 -13 0
-10 -9 -23 -6 -51 9 -21 11 -34 15 -30 8 5 -8 3 -9 -6 -4 -7 4 -22 9 -34 9
-11 1 -20 6 -19 12 1 6 -20 10 -52 9 -35 -1 -56 2 -59 10 -2 7 -18 12 -36 10
-17 -1 -36 3 -43 10 -7 6 -33 11 -60 10 -32 -2 -47 2 -47 10 0 9 -14 12 -41
11 -23 0 -43 4 -46 10 -2 6 -27 12 -56 13 -29 1 -53 6 -55 12 -2 5 -25 9 -52
9 -27 0 -50 5 -52 11 -4 13 -117 17 -122 4 -3 -5 -5 -2 -5 8 -1 9 -7 17 -13
18 -7 1 -29 2 -48 4 -19 2 -51 7 -70 12 -19 5 -50 8 -68 7 -20 -2 -35 3 -38
11 -4 9 -24 12 -66 11 -39 -1 -62 2 -65 10 -2 7 -15 11 -29 9 -13 -1 -24 3
-24 9 0 7 -3 7 -8 1 -9 -12 -42 -12 -61 -1 -11 7 -12 6 -5 -5 6 -11 2 -10 -16
2 -29 18 -70 30 -70 20 0 -11 -83 -3 -91 10 -4 6 -18 10 -33 7 -14 -3 -26 -2
-26 1 0 3 -11 6 -24 6 -13 0 -22 -3 -19 -7 7 -13 -12 -9 -25 4 -7 7 -12 9 -12
4 0 -4 -7 0 -16 9 -12 12 -19 13 -30 4 -10 -8 -14 -8 -14 0 0 13 -22 10 -32
-4 -5 -6 -8 -6 -8 2 0 7 -12 10 -34 7 -20 -2 -40 1 -48 8 -8 9 -43 13 -97 13
-47 -1 -88 4 -95 10 -7 7 -52 10 -116 10 -62 -1 -111 3 -119 9 -8 6 -64 11
-132 12 -72 0 -123 5 -131 12 -8 6 -43 10 -81 9 -37 -1 -67 2 -67 6 0 5 -5 5
-12 1 -17 -11 -182 -6 -186 6 -5 13 -2054 14 -2067 1 -12 -12 -175 -19 -175
-8 0 5 -5 5 -12 1 -16 -10 -108 -11 -108 0 0 5 -6 3 -13 -3 -8 -6 -17 -8 -21
-4 -4 4 -11 1 -16 -6 -6 -11 -37 -14 -130 -14 -81 0 -123 -3 -126 -11 -3 -7
-41 -11 -112 -10 -61 0 -113 -4 -121 -10 -7 -6 -54 -11 -103 -12 -50 0 -93 -5
-96 -11 -4 -5 -18 -9 -32 -8 -14 1 -32 -1 -41 -6 -10 -5 -21 -3 -29 4 -10 9
-14 9 -17 0 -3 -9 -10 -10 -24 -2 -15 7 -21 6 -25 -5 -4 -11 -21 -14 -70 -12
-35 1 -58 -2 -51 -6 17 -11 3 -10 -27 2 -18 6 -26 6 -26 -1 0 -6 -6 -7 -12 -2
-7 4 -19 8 -27 10 -8 1 -17 5 -20 10 -9 12 -115 10 -123 -2 -5 -6 -8 -6 -8 2
0 7 -6 10 -14 7 -7 -3 -16 1 -18 8 -4 10 -30 13 -94 12 -51 0 -92 4 -96 10 -4
6 -54 10 -116 11 -62 0 -116 6 -124 12 -8 6 -57 10 -123 9 -71 -1 -117 3 -130
11 -14 8 -70 11 -179 11 -114 -1 -161 2 -164 10 -6 18 -2071 17 -2077 0z
m5130 -420 c29 0 58 3 64 6 6 4 11 4 11 -1 0 -8 118 -8 126 0 3 3 20 1 38 -3
19 -4 40 -4 47 1 7 4 18 5 24 1 14 -9 36 -9 63 0 12 4 22 4 22 0 0 -8 119 -7
127 1 3 3 15 2 28 -3 13 -5 25 -7 27 -5 5 6 82 7 126 2 17 -2 32 1 32 6 0 4 4
5 10 2 15 -9 93 -10 108 -2 7 5 12 3 12 -3 0 -7 6 -8 19 -1 10 6 21 7 25 4 11
-11 36 -12 36 -2 0 6 5 7 12 3 14 -9 69 -10 91 -1 10 4 17 3 17 -1 0 -4 14 -7
30 -7 17 0 30 4 30 8 0 5 4 5 10 2 15 -9 80 -12 80 -4 0 4 13 4 29 -1 15 -4
34 -4 42 0 7 5 18 6 24 2 17 -11 35 -11 35 -1 0 6 6 7 13 2 6 -4 22 -6 34 -5
12 2 25 -3 30 -10 9 -15 83 -19 83 -5 0 6 5 5 13 0 6 -5 30 -8 52 -6 46 5 51
5 85 0 14 -2 31 1 38 6 7 6 12 6 12 -1 0 -6 10 -9 21 -7 12 2 33 -2 48 -9 17
-8 62 -12 131 -11 70 1 110 -2 120 -10 10 -8 50 -12 119 -11 66 1 108 -3 115
-10 7 -7 46 -11 100 -10 61 1 90 -2 93 -11 3 -7 22 -11 49 -10 24 1 44 -2 44
-8 0 -6 3 -5 8 1 8 13 84 6 76 -7 -3 -5 28 -9 70 -9 41 0 76 -4 78 -10 4 -11
90 -16 106 -6 7 4 12 2 12 -4 0 -6 5 -8 11 -4 6 3 15 1 19 -7 6 -9 30 -13 76
-12 43 1 72 -4 80 -12 8 -8 32 -12 61 -10 26 1 57 -3 68 -10 11 -7 42 -12 70
-11 36 1 55 -4 69 -18 10 -10 21 -14 25 -9 9 14 65 10 74 -5 5 -7 12 -10 18
-7 5 4 9 1 9 -5 0 -6 5 -8 13 -3 16 10 39 10 55 -1 8 -5 12 -4 12 5 0 8 8 4
20 -9 20 -21 47 -31 36 -13 -7 11 73 -4 85 -16 6 -6 28 -8 50 -6 28 3 41 0 45
-10 4 -10 18 -14 44 -12 23 1 41 -2 43 -10 3 -7 22 -11 44 -10 21 0 47 -3 58
-9 11 -5 35 -11 55 -13 19 -2 37 -8 40 -12 3 -5 26 -8 53 -7 32 1 47 -3 47
-11 0 -9 15 -13 44 -13 24 0 46 -4 48 -10 2 -5 22 -11 46 -12 25 -1 42 -6 42
-13 0 -8 13 -11 40 -8 29 4 40 1 40 -9 0 -9 12 -13 40 -12 22 0 45 -5 50 -11
6 -7 26 -12 45 -10 19 1 32 -1 30 -6 -7 -10 14 -16 55 -15 22 1 40 -5 48 -17
10 -13 17 -15 33 -7 15 9 19 7 19 -6 0 -11 6 -15 20 -11 11 3 20 2 20 -3 0 -4
12 -6 26 -4 15 1 28 -4 31 -13 5 -12 7 -12 14 -1 6 9 9 10 9 1 0 -7 7 -10 15
-7 8 4 17 -1 21 -9 4 -11 15 -14 39 -11 19 2 39 -2 47 -8 7 -7 24 -15 38 -16
14 -2 30 -8 36 -13 7 -6 23 -8 37 -5 15 3 31 -1 38 -10 6 -8 24 -14 40 -14 16
0 29 -4 29 -9 0 -13 39 -21 47 -8 4 6 10 0 15 -14 7 -19 11 -21 18 -9 8 12 10
12 10 1 0 -10 3 -11 13 -3 9 8 16 6 24 -6 7 -13 22 -17 52 -16 30 0 41 -3 41
-14 0 -9 6 -12 16 -8 8 3 25 0 37 -6 12 -7 30 -13 40 -14 9 -1 22 -2 28 -3 5
0 7 -6 3 -13 -5 -8 0 -9 14 -6 13 4 22 1 22 -5 0 -8 3 -7 9 1 6 11 10 10 15
-4 3 -9 9 -14 13 -11 3 4 12 2 20 -4 10 -9 13 -8 13 1 0 7 11 3 26 -9 15 -12
33 -21 40 -21 8 0 14 -4 14 -8 0 -5 7 -9 15 -9 8 0 15 4 15 9 0 4 9 -1 21 -13
12 -12 27 -18 39 -14 12 4 22 0 28 -11 5 -9 15 -14 23 -12 8 3 27 -1 42 -9 15
-8 31 -11 36 -9 5 3 14 -1 21 -9 7 -8 21 -15 31 -15 11 0 19 -4 19 -10 0 -5
14 -10 30 -10 17 0 30 -4 30 -10 0 -5 14 -10 30 -10 17 0 30 -4 30 -10 0 -5 8
-10 18 -10 10 0 22 -4 27 -9 6 -6 23 -12 39 -15 16 -3 33 -11 37 -17 4 -6 11
-9 17 -5 5 3 12 0 15 -8 3 -8 14 -13 24 -12 23 4 55 -12 48 -24 -3 -4 4 -6 15
-3 13 4 26 -1 34 -12 9 -13 15 -15 20 -6 5 8 13 8 27 1 11 -6 17 -15 14 -20
-3 -5 4 -7 15 -5 12 2 23 -2 26 -9 3 -8 17 -12 35 -11 16 1 29 -2 29 -9 0 -13
77 -39 91 -31 5 4 9 2 9 -4 0 -12 59 -43 70 -36 4 3 11 -2 14 -11 3 -9 12 -14
19 -11 6 2 44 -12 82 -31 39 -20 76 -35 83 -34 6 2 12 -4 12 -12 0 -9 7 -14
18 -12 23 5 65 -12 58 -22 -3 -5 6 -7 19 -4 18 3 25 0 25 -11 0 -9 7 -14 18
-13 9 2 20 -2 24 -8 4 -6 11 -11 15 -12 15 -1 68 -29 75 -39 4 -5 8 -7 8 -2 0
4 11 0 25 -9 13 -9 30 -14 37 -12 7 3 19 -1 26 -9 7 -7 22 -13 33 -13 10 0 19
-4 19 -10 0 -5 7 -10 15 -10 8 0 15 -4 15 -10 0 -5 8 -10 18 -10 10 0 23 -5
29 -11 6 -6 19 -12 29 -14 11 -1 18 -7 17 -13 -1 -6 5 -9 15 -7 9 1 19 -1 22
-6 3 -4 12 -9 20 -11 8 -2 21 -9 28 -15 7 -7 22 -13 33 -13 11 0 19 -7 19 -17
0 -14 2 -15 9 -4 7 10 11 9 23 -8 8 -11 18 -18 21 -14 4 3 16 -2 27 -12 11
-10 20 -15 20 -11 0 3 11 -1 25 -10 14 -9 25 -12 25 -8 0 5 7 1 15 -10 7 -10
18 -15 23 -12 6 3 13 -1 16 -10 3 -8 14 -14 23 -12 10 1 20 -2 22 -7 9 -19 45
-43 58 -38 7 3 13 -2 13 -12 0 -9 4 -13 10 -10 5 3 20 -1 32 -9 13 -8 28 -16
33 -18 6 -2 9 -6 8 -10 -1 -3 5 -5 15 -4 9 2 23 -3 30 -11 8 -7 17 -11 22 -8
4 3 11 -2 14 -11 3 -9 12 -14 19 -11 6 2 23 -8 37 -22 14 -15 34 -25 44 -23
11 3 16 0 12 -7 -6 -10 5 -15 26 -13 3 1 11 -5 18 -13 6 -7 17 -12 24 -9 7 3
18 -7 26 -20 7 -14 16 -23 20 -21 4 2 16 -2 26 -10 10 -8 27 -15 37 -15 9 0
17 -4 17 -10 0 -5 12 -10 27 -10 14 0 24 -3 20 -6 -9 -10 13 -27 71 -54 28
-14 52 -30 52 -37 0 -6 9 -10 20 -8 13 3 20 -2 20 -12 0 -9 7 -14 18 -11 17 4
65 -36 55 -46 -3 -2 3 -3 14 -2 10 2 21 -1 24 -6 3 -5 13 -10 22 -12 9 -1 25
-12 36 -25 12 -14 27 -21 36 -17 8 3 15 1 15 -4 0 -5 16 -17 35 -26 19 -9 32
-20 29 -25 -3 -5 0 -10 5 -10 6 -1 16 -3 21 -4 6 -1 15 -3 20 -4 6 0 10 -8 10
-16 0 -8 3 -15 8 -16 30 -3 45 -11 66 -36 14 -15 26 -22 26 -15 0 6 5 12 12
12 6 0 8 -3 5 -7 -9 -9 42 -55 54 -48 5 4 9 1 9 -5 0 -6 6 -10 14 -8 8 2 23
-7 34 -20 12 -13 27 -24 34 -26 8 -1 25 -12 38 -24 13 -12 29 -22 36 -22 6 0
17 -7 24 -15 7 -9 27 -22 45 -31 18 -8 38 -26 45 -40 8 -13 18 -23 24 -21 6 2
24 -7 40 -20 16 -13 35 -22 43 -19 8 3 12 2 9 -3 -6 -10 40 -52 48 -43 4 3 22
-11 41 -32 22 -24 40 -36 50 -32 8 3 15 1 15 -5 0 -16 26 -39 44 -39 9 0 21
-9 28 -20 7 -11 18 -20 25 -20 7 0 13 -7 13 -16 0 -8 5 -12 10 -9 6 4 24 -7
41 -24 17 -17 35 -31 40 -31 6 0 7 -4 4 -10 -3 -6 1 -7 10 -4 10 4 26 -6 47
-30 16 -20 34 -33 39 -30 10 6 59 -40 59 -56 0 -5 10 -10 22 -10 12 0 35 -15
52 -33 17 -19 39 -33 49 -31 9 1 17 -2 17 -8 0 -10 78 -83 89 -83 4 0 15 -8
25 -17 10 -10 22 -18 27 -18 6 0 7 -4 4 -10 -5 -9 6 -14 26 -12 3 1 25 -19 48
-44 24 -24 47 -44 52 -44 6 0 7 -4 4 -10 -6 -10 7 -14 33 -11 6 1 12 -5 12
-14 0 -9 5 -13 10 -10 6 3 10 -2 10 -11 0 -10 3 -14 6 -11 4 3 15 -5 26 -18
11 -14 26 -25 33 -25 16 0 105 -87 105 -102 0 -5 5 -6 11 -3 6 4 13 -3 16 -15
4 -14 8 -18 13 -10 8 13 140 -111 140 -133 0 -8 3 -8 9 2 7 11 30 -7 100 -77
50 -51 98 -92 106 -92 8 0 15 -5 15 -11 0 -5 5 -7 10 -4 6 3 10 2 10 -4 0 -13
228 -240 235 -233 3 3 5 -2 5 -10 0 -9 15 -23 34 -32 18 -9 51 -35 72 -58 21
-24 42 -42 46 -41 4 2 10 -6 13 -17 4 -11 13 -20 21 -20 8 0 14 -4 14 -8 0 -9
51 -63 108 -114 42 -38 42 -38 23 -57 -13 -13 -29 -18 -44 -15 -16 2 -27 -1
-30 -11 -4 -8 -15 -12 -29 -10 -12 3 -25 0 -29 -6 -3 -6 -12 -11 -20 -12 -8
-2 -27 -8 -44 -14 -16 -6 -43 -14 -58 -17 -15 -4 -26 -10 -23 -14 2 -4 -4 -8
-15 -8 -10 0 -19 5 -19 10 0 6 -7 1 -15 -11 -11 -15 -23 -20 -40 -17 -15 3
-25 0 -25 -7 0 -7 -10 -9 -25 -6 -17 3 -30 -1 -38 -13 -8 -11 -24 -17 -49 -15
-23 0 -39 -4 -42 -12 -4 -8 -15 -12 -30 -9 -14 2 -26 0 -28 -6 -4 -10 -21 -14
-66 -17 -7 -1 -10 -5 -7 -11 4 -6 -6 -10 -24 -10 -16 0 -33 -4 -36 -10 -3 -5
-16 -10 -28 -10 -12 0 -30 -7 -40 -14 -9 -7 -28 -11 -42 -8 -18 3 -25 0 -25
-11 0 -11 -7 -14 -24 -11 -14 2 -31 -3 -41 -12 -9 -9 -19 -14 -22 -11 -3 4
-17 0 -32 -7 -14 -7 -36 -12 -48 -11 -12 1 -21 -3 -20 -9 2 -11 -4 -12 -51
-15 -13 0 -20 -5 -17 -11 3 -5 -1 -10 -10 -10 -9 0 -26 -5 -38 -12 -12 -6 -30
-12 -40 -13 -11 -1 -22 -6 -25 -12 -4 -5 -19 -9 -34 -8 -16 1 -29 -4 -33 -13
-3 -8 -12 -12 -19 -9 -8 3 -17 -1 -20 -9 -3 -9 -15 -13 -30 -10 -15 3 -27 -1
-30 -10 -3 -8 -9 -13 -13 -12 -4 1 -18 -3 -30 -10 -13 -7 -23 -10 -23 -6 0 3
-7 1 -15 -6 -8 -7 -15 -10 -15 -6 0 4 -11 -1 -25 -10 -14 -9 -25 -12 -25 -8 0
5 -6 2 -13 -6 -7 -9 -19 -15 -27 -15 -8 1 -25 -5 -37 -13 -13 -8 -23 -10 -23
-6 0 5 -4 3 -9 -5 -5 -8 -17 -16 -27 -17 -9 -2 -20 -7 -23 -13 -4 -5 -19 -8
-34 -7 -24 3 -32 -4 -28 -26 0 -4 -9 -5 -21 -3 -12 3 -27 -3 -35 -13 -9 -11
-12 -11 -7 -2 4 8 -4 5 -18 -8 -13 -12 -28 -19 -32 -15 -4 4 -11 2 -15 -5 -4
-8 -14 -14 -22 -15 -8 -2 -21 -7 -29 -12 -36 -24 -63 -34 -71 -29 -5 3 -9 -2
-9 -10 0 -9 -8 -16 -19 -16 -10 0 -35 -18 -55 -40 -20 -22 -39 -40 -43 -40 -5
0 -19 -16 -33 -34 -14 -19 -29 -33 -35 -33 -5 1 -10 -2 -9 -8 0 -5 -12 -22
-28 -37 -15 -15 -28 -24 -28 -21 0 3 -13 -11 -30 -32 -16 -21 -30 -35 -30 -31
0 4 -6 1 -14 -6 -8 -7 -13 -15 -11 -16 5 -6 -34 -42 -45 -42 -5 0 -10 -7 -10
-16 0 -8 -4 -12 -10 -9 -5 3 -10 2 -10 -2 0 -15 -92 -103 -101 -97 -5 3 -6 -2
-3 -10 4 -11 0 -16 -12 -16 -9 0 -15 -3 -11 -6 3 -4 -12 -21 -33 -39 -21 -18
-37 -34 -35 -36 2 -2 -12 -15 -31 -29 -18 -14 -34 -29 -34 -34 0 -16 -51 -56
-62 -50 -7 5 -9 1 -5 -9 5 -13 1 -17 -16 -17 -16 0 -23 6 -24 20 -2 23 -27 52
-37 43 -3 -4 -6 1 -6 11 0 9 -4 14 -10 11 -5 -3 -10 3 -10 14 0 11 -15 34 -32
52 -18 18 -33 39 -33 48 0 9 -6 15 -12 13 -7 -1 -13 3 -13 9 0 13 -26 40 -32
34 -3 -3 -5 2 -6 10 -1 8 -3 22 -4 30 -1 8 -4 15 -8 15 -18 0 -80 71 -80 91 0
12 -3 20 -6 16 -8 -8 -34 18 -34 33 0 6 -4 8 -10 5 -5 -3 -10 3 -10 14 0 12
-4 21 -10 21 -5 0 -10 7 -10 16 0 8 -4 13 -8 10 -5 -3 -15 6 -22 19 -7 14 -19
25 -27 25 -7 0 -13 7 -13 16 0 8 -5 12 -11 8 -7 -4 -10 1 -7 12 3 16 -65 94
-82 94 -3 0 -6 8 -7 18 -2 20 -88 113 -97 104 -3 -3 -6 2 -6 10 0 9 -7 19 -16
22 -8 3 -13 10 -10 15 4 5 -24 40 -61 77 -38 38 -67 72 -65 76 3 12 -35 47
-43 40 -4 -4 -5 -2 -3 4 1 6 -28 41 -66 78 -44 43 -66 71 -62 81 3 8 1 15 -4
15 -5 0 -34 25 -63 55 -30 30 -57 51 -61 47 -4 -4 -6 -2 -4 5 1 6 -32 45 -74
86 -42 41 -74 78 -70 83 4 4 0 5 -8 2 -11 -4 -16 1 -18 15 0 12 -20 39 -44 61
-24 21 -36 36 -28 31 8 -4 2 4 -15 19 -16 14 -33 25 -37 26 -5 0 -8 7 -8 16 0
8 -4 12 -10 9 -5 -3 -10 -1 -10 5 0 6 -4 8 -10 5 -5 -3 -10 3 -10 15 0 12 -4
18 -10 15 -5 -3 -10 1 -10 9 0 9 -4 16 -9 16 -13 0 -91 81 -91 93 0 6 -2 8 -6
5 -6 -7 -114 101 -114 115 0 6 -2 8 -5 5 -8 -8 -75 59 -75 73 0 7 -3 9 -7 6
-3 -4 -15 5 -25 20 -10 16 -18 25 -18 21 0 -3 -13 7 -30 22 -16 15 -30 34 -30
41 0 7 -3 9 -7 6 -3 -4 -16 7 -28 23 -12 16 -25 27 -28 23 -4 -3 -7 2 -7 12 0
15 -3 16 -12 7 -14 -14 -29 -16 -26 -3 2 5 -32 44 -75 85 -43 42 -75 76 -71
76 4 0 -6 10 -22 23 -16 12 -48 42 -73 67 -24 25 -47 44 -52 42 -5 -1 -9 2 -9
8 0 6 -3 9 -8 8 -4 -2 -46 36 -94 84 -59 60 -92 86 -102 82 -9 -3 -16 -1 -16
5 0 13 -56 71 -70 71 -5 0 -10 5 -10 11 0 15 -30 43 -49 46 -9 1 -23 11 -33
22 -9 12 -22 21 -29 21 -7 0 -10 3 -6 6 8 8 -18 34 -34 34 -7 0 -10 3 -6 6 10
10 -20 34 -43 34 -12 0 -19 4 -16 8 3 5 -6 15 -19 22 -14 7 -25 19 -25 26 0 6
-17 20 -37 29 -21 10 -46 29 -57 43 -10 13 -25 29 -33 36 -7 6 -21 17 -29 25
-8 7 -18 11 -21 8 -3 -3 -21 12 -41 33 -19 22 -39 37 -43 34 -5 -3 -28 15 -52
39 -25 26 -49 43 -60 41 -11 -1 -16 0 -13 3 6 7 -52 63 -66 63 -5 0 -25 16
-44 35 -18 19 -36 35 -39 35 -30 0 -37 1 -33 6 8 8 -53 65 -62 59 -5 -3 -24
11 -44 31 -21 21 -40 33 -47 28 -8 -4 -9 -3 -5 4 4 7 2 12 -4 12 -5 0 -24 15
-41 33 -17 17 -27 26 -23 18 4 -7 -7 -3 -24 9 -17 13 -28 28 -25 33 4 6 -1 8
-11 4 -13 -5 -28 3 -51 29 -22 24 -39 34 -49 31 -9 -4 -16 -2 -16 4 0 15 -26
39 -42 39 -7 0 -21 8 -30 18 -9 9 -34 28 -57 42 -23 13 -41 30 -41 38 0 8 -6
12 -13 9 -15 -5 -59 27 -50 37 4 3 -3 6 -15 6 -12 0 -30 9 -41 21 -10 11 -27
22 -37 24 -11 1 -18 8 -16 15 1 6 -2 9 -8 5 -5 -3 -13 1 -16 9 -3 9 -15 16
-25 16 -10 0 -19 5 -19 10 0 6 -8 10 -18 10 -10 0 -24 9 -32 20 -8 11 -22 20
-30 20 -9 0 -27 11 -40 25 -13 14 -30 23 -37 21 -7 -3 -13 1 -13 10 0 8 -4 12
-10 9 -5 -3 -10 1 -10 10 0 11 -5 15 -15 11 -9 -3 -24 5 -37 19 -12 14 -27 24
-33 22 -12 -5 -36 18 -28 27 3 3 -4 4 -16 1 -14 -3 -21 1 -21 12 0 9 -3 14 -6
10 -4 -3 -13 1 -21 9 -8 8 -19 12 -24 8 -5 -3 -12 2 -15 11 -4 9 -12 14 -19
11 -7 -2 -21 6 -31 20 -11 13 -25 24 -32 24 -7 0 -24 7 -37 16 -14 9 -25 13
-25 9 0 -4 -9 4 -21 18 -11 15 -23 26 -27 25 -4 -1 -17 3 -28 10 -12 6 -24 8
-28 5 -3 -3 -6 2 -6 12 0 10 -3 16 -6 12 -3 -3 -15 3 -27 13 -11 11 -24 17
-29 14 -4 -3 -11 2 -14 10 -3 9 -10 14 -14 11 -12 -7 -41 6 -35 16 3 4 -4 6
-15 4 -13 -2 -20 1 -20 11 0 8 -4 12 -10 9 -5 -3 -10 1 -10 11 0 11 -6 15 -19
11 -12 -3 -22 1 -25 10 -4 8 -13 13 -20 10 -8 -3 -17 1 -20 9 -3 8 -12 14 -19
14 -8 0 -27 11 -42 24 -16 14 -32 23 -36 20 -4 -2 -9 3 -13 11 -3 8 -12 12
-21 9 -9 -4 -17 1 -21 11 -4 9 -12 14 -20 11 -7 -3 -18 2 -24 9 -7 8 -16 12
-21 9 -5 -3 -12 2 -15 10 -3 9 -10 13 -15 10 -5 -3 -9 1 -9 8 0 10 -2 10 -9
-1 -7 -11 -10 -10 -18 3 -5 10 -18 19 -29 20 -10 2 -18 9 -17 15 2 6 -4 11
-12 11 -8 0 -15 5 -15 11 0 5 -4 8 -9 4 -5 -3 -16 2 -25 11 -9 8 -20 12 -26 9
-6 -3 -13 1 -16 9 -3 9 -14 16 -23 16 -9 0 -22 5 -29 12 -7 7 -12 8 -12 3 0
-4 -9 0 -20 10 -11 10 -23 16 -26 12 -3 -3 -14 3 -25 14 -11 11 -24 17 -29 14
-6 -4 -10 1 -10 9 0 9 -6 13 -14 10 -7 -3 -20 1 -27 8 -8 7 -21 14 -29 16 -8
2 -18 8 -21 14 -4 6 -12 7 -18 4 -6 -4 -14 -1 -17 8 -3 8 -14 13 -25 11 -11
-2 -17 0 -14 4 6 11 -23 23 -35 16 -5 -3 -12 4 -15 15 -6 18 -9 19 -23 8 -10
-8 -13 -9 -9 -1 6 10 -30 31 -42 24 -2 -2 -7 2 -11 8 -9 16 -50 22 -50 8 -1
-7 -6 -3 -13 8 -7 11 -19 21 -27 23 -8 2 -18 8 -21 14 -4 6 -14 8 -22 5 -9 -3
-18 1 -21 10 -4 8 -12 13 -20 10 -9 -4 -16 3 -20 15 -4 17 -8 19 -19 9 -12 -9
-16 -8 -21 4 -3 8 -14 15 -25 15 -11 0 -21 5 -23 10 -2 6 -14 11 -28 12 -14 1
-33 8 -42 16 -10 8 -18 11 -18 6 0 -5 -7 -1 -14 9 -8 10 -18 17 -22 15 -5 -1
-19 3 -30 10 -12 6 -24 8 -28 5 -3 -3 -6 2 -6 11 0 12 -5 16 -15 13 -8 -4 -17
-2 -20 3 -3 5 -12 7 -20 3 -8 -3 -15 0 -15 7 0 7 -8 10 -20 7 -11 -3 -18 -2
-15 3 6 10 -23 22 -35 15 -5 -3 -11 3 -15 14 -4 13 -14 18 -35 16 -21 -2 -30
2 -30 12 0 9 -6 12 -19 8 -11 -3 -21 0 -24 8 -3 8 -18 15 -33 15 -16 0 -30 5
-32 11 -2 6 -12 11 -23 11 -10 0 -19 5 -19 11 0 7 -10 9 -25 7 -14 -3 -30 1
-36 8 -6 8 -19 14 -29 14 -10 0 -20 7 -23 15 -4 8 -15 12 -29 10 -12 -3 -25 0
-29 6 -3 6 -15 12 -25 13 -10 2 -18 9 -16 16 2 8 -3 10 -13 7 -8 -4 -28 -1
-43 5 -15 6 -30 12 -34 12 -4 1 -16 8 -27 18 -12 10 -22 13 -29 6 -6 -6 -15
-3 -26 7 -9 10 -25 15 -36 12 -13 -3 -24 1 -30 14 -6 10 -17 16 -25 13 -8 -4
-17 0 -20 8 -4 9 -17 14 -33 13 -15 0 -33 5 -40 11 -7 7 -19 11 -26 8 -7 -3
-21 2 -30 11 -9 9 -23 14 -31 11 -8 -3 -21 1 -28 9 -8 7 -26 12 -40 11 -15 -2
-28 3 -31 10 -3 8 -15 14 -26 14 -12 0 -19 4 -15 9 8 14 -7 20 -30 11 -13 -4
-24 -2 -30 7 -6 8 -25 15 -43 15 -19 1 -32 6 -32 14 0 7 -10 11 -27 9 -16 -1
-31 2 -35 8 -3 5 -18 11 -34 13 -15 2 -30 8 -34 15 -4 6 -13 8 -19 5 -6 -4
-11 -2 -11 5 0 8 -4 8 -15 -1 -13 -11 -20 -9 -38 8 -16 15 -26 19 -33 12 -7
-7 -18 -4 -34 10 -17 14 -26 17 -36 9 -9 -7 -15 -6 -21 5 -5 9 -21 17 -37 18
-16 2 -30 8 -33 14 -2 7 -19 10 -38 8 -21 -2 -40 3 -49 12 -8 7 -21 11 -29 8
-8 -3 -21 1 -28 8 -8 8 -25 13 -39 13 -14 0 -34 5 -46 12 -12 6 -30 10 -40 9
-10 -2 -24 4 -30 13 -8 10 -24 14 -47 13 -20 -1 -38 2 -42 8 -3 5 -16 10 -28
10 -12 0 -30 6 -39 13 -9 7 -31 12 -48 11 -17 -1 -33 3 -36 10 -3 7 -21 12
-42 11 -20 0 -40 4 -44 9 -4 6 -23 11 -43 12 -20 2 -41 6 -48 11 -7 5 -26 9
-44 8 -20 -1 -34 4 -38 13 -4 11 1 13 20 10 14 -3 28 -1 31 4 3 4 10 5 16 2 5
-4 34 -6 63 -6z m12555 -5549 c0 -6 5 -7 10 -4 6 3 14 -4 19 -17 6 -13 10 -20
10 -15 1 4 9 -1 19 -10 11 -10 18 -26 16 -35 -2 -10 0 -18 4 -18 18 -1 82 -70
82 -90 0 -11 5 -18 10 -15 6 3 10 2 10 -4 0 -5 20 -29 45 -52 24 -23 42 -45
40 -49 -3 -4 14 -26 37 -49 23 -22 36 -41 29 -41 -8 0 8 -21 35 -46 27 -25 49
-51 49 -58 0 -7 15 -27 33 -45 17 -18 32 -38 32 -45 0 -7 11 -21 24 -32 14
-10 23 -21 20 -26 -3 -4 2 -8 11 -8 11 0 15 -5 12 -14 -3 -8 10 -27 30 -45 19
-17 33 -37 30 -44 -2 -7 10 -23 27 -36 17 -13 39 -41 49 -63 10 -21 23 -36 28
-32 5 3 9 -2 9 -11 0 -9 5 -13 10 -10 6 3 10 -4 10 -17 0 -13 11 -31 25 -42
13 -10 22 -23 19 -28 -3 -5 8 -21 25 -36 16 -15 31 -34 33 -42 2 -8 15 -27 31
-41 28 -28 36 -45 15 -33 -7 4 2 -9 20 -28 18 -19 29 -37 26 -41 -4 -4 1 -9
10 -13 9 -3 13 -10 10 -15 -3 -5 2 -9 12 -9 11 0 15 -6 11 -19 -3 -13 3 -23
19 -31 13 -7 21 -17 18 -22 -3 -4 2 -8 10 -8 10 0 16 -9 16 -25 0 -15 5 -24
13 -23 7 2 11 -6 9 -19 -2 -14 4 -26 17 -33 12 -6 21 -17 21 -25 0 -9 11 -25
25 -37 14 -12 23 -27 21 -34 -3 -7 9 -22 25 -35 20 -15 26 -26 19 -33 -6 -8
-2 -16 13 -26 12 -8 25 -13 28 -13 4 1 6 -6 6 -15 0 -35 3 -42 18 -42 9 0 18
-12 22 -30 3 -17 12 -30 20 -30 11 0 13 -4 6 -12 -10 -14 20 -52 31 -40 3 3 6
-4 6 -16 0 -12 11 -33 26 -47 14 -14 23 -29 19 -34 -3 -5 -1 -11 4 -13 5 -1
11 -10 13 -18 2 -8 13 -26 26 -40 12 -14 20 -31 17 -38 -3 -7 -1 -10 4 -7 9 5
27 -32 23 -47 -1 -5 5 -8 14 -8 8 0 12 -4 9 -10 -3 -5 1 -10 10 -10 11 0 15
-6 10 -19 -3 -12 0 -21 11 -25 8 -3 14 -11 12 -18 -5 -13 26 -48 43 -48 8 0 8
-4 0 -14 -10 -12 -8 -17 10 -26 15 -9 18 -14 10 -20 -9 -5 -9 -9 3 -13 9 -4
16 -16 16 -27 0 -11 5 -20 10 -20 6 0 10 -7 10 -17 0 -9 3 -13 7 -10 6 7 35
-45 37 -66 1 -4 7 -12 15 -16 7 -5 11 -14 7 -19 -4 -6 6 -24 21 -39 15 -15 29
-35 31 -43 2 -8 8 -17 13 -18 5 -2 7 -7 4 -12 -3 -5 2 -15 10 -23 9 -9 12 -23
8 -33 -4 -11 -3 -15 4 -11 12 8 26 -20 17 -34 -3 -5 2 -9 12 -9 11 0 15 -6 11
-20 -3 -13 0 -20 10 -20 8 0 13 -7 11 -17 -2 -10 9 -30 24 -45 14 -14 24 -29
20 -33 -3 -3 0 -10 8 -15 7 -5 15 -16 16 -26 2 -9 8 -20 14 -24 7 -4 11 -10
11 -14 -3 -19 0 -27 8 -21 6 3 8 -6 5 -20 -3 -18 0 -25 11 -25 9 0 15 -9 15
-26 0 -16 4 -23 12 -18 8 5 9 0 6 -14 -4 -16 -2 -22 9 -22 10 0 14 -6 10 -20
-3 -13 1 -21 13 -25 12 -4 16 -12 13 -25 -4 -14 0 -20 11 -20 10 0 13 -6 9
-15 -3 -9 2 -22 12 -29 11 -8 16 -20 12 -30 -4 -10 -1 -16 9 -16 8 0 13 -4 9
-9 -3 -5 2 -16 10 -24 8 -9 15 -25 15 -37 0 -12 5 -18 10 -15 6 3 10 -5 10
-18 0 -14 6 -27 14 -30 8 -3 12 -14 9 -25 -2 -10 2 -25 10 -33 7 -8 13 -22 11
-32 -1 -10 4 -17 13 -17 9 0 13 -6 9 -15 -3 -9 3 -20 14 -27 14 -9 16 -16 8
-25 -8 -10 -6 -13 6 -13 9 0 16 -6 15 -12 -3 -27 1 -39 13 -32 6 4 8 3 5 -3
-4 -6 3 -22 14 -37 14 -18 17 -26 7 -27 -10 0 -10 -2 0 -6 6 -2 10 -9 6 -14
-3 -5 2 -16 10 -24 8 -9 13 -22 9 -31 -3 -9 0 -14 8 -12 9 2 14 -5 13 -19 -1
-14 4 -23 13 -23 9 0 13 -6 9 -15 -3 -8 2 -19 11 -23 10 -6 14 -17 10 -31 -3
-12 0 -27 6 -34 19 -20 37 -55 37 -71 0 -8 5 -16 12 -18 6 -2 11 -19 10 -37 0
-18 2 -30 5 -27 10 10 43 -67 37 -85 -2 -10 2 -19 12 -23 9 -3 14 -13 11 -20
-3 -8 -1 -16 5 -18 7 -3 13 -18 14 -35 1 -16 14 -49 30 -72 21 -33 25 -44 15
-51 -11 -6 -10 -9 2 -16 8 -5 17 -16 19 -24 2 -8 8 -20 15 -27 6 -7 10 -21 9
-30 -2 -10 3 -24 11 -31 7 -7 13 -22 13 -33 0 -10 5 -19 10 -19 6 0 10 -13 10
-30 0 -16 5 -30 10 -30 6 0 10 -13 10 -30 0 -16 5 -30 10 -30 6 0 10 -9 10
-19 0 -11 5 -21 11 -23 5 -2 11 -18 11 -35 1 -18 7 -34 14 -37 8 -3 11 -15 8
-31 -3 -17 1 -27 11 -31 8 -4 13 -15 11 -27 -2 -13 5 -29 17 -39 11 -10 15
-18 9 -18 -14 0 -9 -30 7 -39 7 -4 11 -12 10 -17 -3 -20 1 -35 10 -30 13 8 21
-18 11 -35 -6 -9 -3 -19 10 -31 11 -10 16 -25 13 -37 -3 -13 0 -23 9 -26 10
-4 14 -16 12 -36 -2 -19 1 -29 10 -29 9 0 13 -10 11 -29 -1 -18 3 -32 11 -35
9 -3 12 -17 10 -36 -2 -17 2 -36 8 -43 6 -7 13 -25 14 -41 1 -17 6 -33 12 -36
5 -3 10 -20 12 -37 1 -17 7 -31 13 -30 5 1 9 -8 7 -21 -2 -12 3 -29 11 -37 8
-8 12 -25 10 -38 -3 -14 2 -35 9 -48 8 -13 14 -31 14 -39 -1 -8 4 -21 12 -29
7 -7 10 -22 7 -32 -4 -12 -1 -21 8 -25 10 -3 15 -19 14 -45 -1 -24 5 -46 15
-55 12 -12 14 -24 8 -43 -6 -22 -4 -30 13 -40 16 -11 17 -15 6 -22 -12 -7 -12
-9 0 -9 8 0 12 -3 9 -6 -4 -3 0 -17 7 -31 7 -14 11 -36 9 -49 -3 -15 1 -27 9
-30 8 -3 13 -18 12 -40 -1 -20 3 -41 10 -48 7 -7 11 -24 10 -39 -2 -15 2 -33
9 -40 7 -7 13 -26 12 -42 -1 -17 5 -38 12 -47 9 -10 13 -31 10 -52 -2 -21 0
-34 7 -33 5 1 11 -17 13 -41 2 -24 9 -45 16 -48 7 -3 10 -18 8 -40 -3 -24 0
-39 9 -45 9 -5 13 -25 12 -54 -1 -28 3 -48 10 -51 8 -3 12 -24 11 -59 0 -33 3
-53 10 -52 6 1 11 -14 12 -33 0 -20 8 -47 17 -61 10 -14 14 -29 10 -33 -13
-13 -10 -55 5 -61 9 -3 12 -13 9 -25 -3 -11 -1 -20 5 -20 5 0 6 -6 1 -12 -12
-19 -11 -31 4 -49 7 -9 13 -27 13 -40 -1 -49 7 -101 16 -107 12 -9 14 -56 1
-63 -5 -4 -1 -15 10 -26 14 -14 19 -32 18 -73 -1 -30 3 -58 9 -62 6 -4 11 -34
11 -68 0 -36 5 -64 12 -68 8 -5 11 -29 10 -66 -2 -31 2 -65 9 -74 6 -9 11 -48
11 -87 1 -46 5 -69 12 -67 7 1 11 -25 11 -79 0 -51 4 -78 10 -74 12 7 12 5 11
-97 -1 -56 3 -78 12 -78 9 0 12 -25 11 -92 0 -55 4 -97 10 -104 7 -6 11 -52
10 -118 0 -74 3 -109 11 -112 8 -4 11 -40 10 -121 0 -71 3 -120 10 -127 6 -6
10 -33 10 -61 0 -27 3 -58 8 -67 4 -10 4 -18 -1 -18 -10 0 -9 -51 2 -68 4 -7
4 -12 -1 -12 -10 0 -10 -111 0 -128 5 -7 13 -9 19 -6 7 5 8 2 3 -6 -11 -18
-13 -60 -2 -60 4 0 3 -9 -3 -20 -8 -15 -8 -20 2 -20 8 0 9 -3 3 -8 -12 -9 -18
-32 -7 -32 4 0 5 -29 2 -65 -3 -36 -2 -65 2 -65 3 0 3 -13 -2 -28 -4 -16 -4
-36 2 -45 5 -10 5 -17 1 -17 -12 0 -10 -134 2 -142 6 -5 6 -8 -1 -8 -6 0 -11
-7 -11 -15 0 -8 4 -15 9 -15 5 0 4 -9 -2 -20 -8 -15 -8 -20 2 -20 8 0 9 -3 3
-8 -12 -9 -18 -32 -7 -32 4 0 5 -29 2 -65 -3 -36 -2 -65 2 -65 3 0 3 -13 -2
-28 -4 -16 -4 -36 2 -45 5 -10 5 -17 1 -17 -4 0 -8 -34 -8 -75 0 -41 3 -75 7
-75 4 0 3 -13 -2 -28 -4 -16 -4 -36 2 -45 5 -10 5 -17 0 -17 -5 0 -8 -16 -8
-35 1 -19 4 -35 8 -35 4 0 3 -13 -2 -28 -4 -16 -4 -36 2 -45 5 -10 5 -17 0
-17 -5 0 -8 -16 -8 -35 1 -19 4 -35 8 -35 4 0 3 -13 -2 -28 -4 -16 -4 -36 2
-45 5 -10 5 -17 0 -17 -5 0 -8 -16 -8 -35 1 -19 4 -35 8 -35 4 0 3 -12 -1 -28
-5 -15 -4 -37 0 -50 6 -15 5 -21 -1 -17 -6 4 -7 -5 -4 -23 4 -18 1 -34 -8 -43
-7 -8 -12 -25 -10 -39 3 -31 3 -39 -1 -70 -1 -14 2 -28 8 -32 7 -5 6 -8 -1 -8
-9 0 -11 -46 -4 -85 2 -6 1 -12 0 -15 -1 -3 -3 -24 -4 -48 -1 -24 -7 -47 -12
-50 -6 -4 -9 -64 -9 -139 1 -94 -2 -134 -10 -137 -9 -3 -12 -36 -11 -110 1
-77 -1 -106 -10 -106 -9 0 -12 -26 -10 -94 1 -52 -1 -93 -5 -90 -10 6 -17 -19
-15 -54 1 -18 -3 -32 -8 -33 -7 0 -7 -2 0 -5 10 -4 10 -25 -2 -82 -2 -13 -8
-21 -12 -18 -4 2 -6 -29 -4 -70 3 -58 1 -74 -10 -74 -11 0 -13 -15 -11 -66 2
-45 -1 -72 -10 -83 -8 -10 -12 -41 -12 -83 1 -44 -3 -69 -11 -72 -7 -3 -11
-23 -9 -56 2 -28 -2 -56 -9 -63 -6 -7 -11 -34 -11 -62 1 -27 -5 -57 -11 -65
-7 -9 -11 -34 -10 -58 2 -23 -1 -42 -6 -42 -5 0 -7 -4 -4 -9 4 -5 1 -11 -5
-13 -12 -4 -20 -58 -8 -58 11 0 4 -32 -15 -69 -13 -24 -13 -31 -4 -32 7 0 8
-2 3 -5 -6 -2 -10 -20 -9 -39 1 -21 -2 -33 -10 -32 -6 1 -9 -5 -7 -13 2 -8 3
-22 2 -30 -1 -8 -1 -23 -2 -32 0 -10 -5 -18 -10 -18 -6 0 -7 -4 -4 -10 3 -5 2
-10 -3 -10 -5 0 -8 -13 -6 -30 2 -16 -2 -35 -9 -42 -7 -7 -13 -35 -14 -62 0
-27 -6 -52 -12 -56 -6 -3 -10 -25 -8 -49 2 -29 -1 -44 -11 -50 -10 -6 -13 -20
-10 -44 2 -24 -1 -38 -9 -41 -8 -3 -13 -22 -13 -45 0 -22 -5 -41 -10 -43 -6
-2 -11 -14 -11 -28 -1 -42 -9 -71 -18 -65 -5 3 -7 -13 -5 -34 2 -27 -1 -41
-11 -45 -9 -3 -12 -14 -9 -31 2 -14 -1 -35 -8 -48 -7 -12 -13 -37 -13 -55 -1
-19 -9 -38 -21 -47 -10 -8 -14 -15 -7 -15 17 0 9 -46 -12 -66 -10 -10 -13 -20
-7 -22 14 -4 2 -42 -14 -42 -10 0 -11 -6 -4 -25 6 -15 6 -26 -1 -30 -5 -4 -7
-10 -4 -15 3 -4 -2 -13 -10 -20 -12 -10 -13 -16 -4 -26 8 -10 8 -14 1 -14 -6
0 -9 -6 -6 -13 3 -8 -2 -19 -10 -26 -8 -7 -12 -19 -9 -27 3 -8 -2 -25 -11 -38
-8 -13 -13 -34 -11 -45 2 -14 -1 -21 -11 -21 -9 0 -14 -10 -13 -27 3 -46 -1
-64 -10 -58 -5 3 -9 -8 -9 -23 1 -32 -9 -55 -21 -47 -5 2 -7 -7 -5 -21 1 -14
-4 -37 -11 -51 -7 -14 -11 -32 -8 -39 3 -8 -1 -14 -9 -14 -9 0 -13 -13 -13
-42 0 -30 -4 -42 -13 -40 -10 2 -12 -7 -8 -33 4 -26 2 -35 -8 -35 -9 0 -13
-10 -11 -29 1 -18 -3 -32 -11 -35 -9 -3 -12 -17 -10 -35 2 -18 -1 -29 -8 -28
-6 1 -12 -9 -13 -23 0 -14 -1 -31 -2 -37 -1 -7 -7 -12 -13 -10 -8 1 -12 -6
-10 -16 2 -9 -4 -20 -12 -23 -9 -3 -13 -14 -10 -29 2 -13 -2 -29 -9 -37 -7 -7
-12 -20 -11 -28 0 -8 -6 -25 -13 -38 -8 -13 -12 -29 -10 -37 3 -7 0 -18 -6
-24 -7 -7 -12 -24 -13 -39 0 -15 -6 -26 -12 -25 -7 2 -12 -8 -12 -22 0 -14 -4
-25 -9 -25 -13 0 -20 -49 -7 -54 6 -2 3 -5 -6 -5 -11 -1 -19 -9 -19 -21 -2
-28 -3 -32 -17 -57 -7 -13 -9 -23 -5 -23 4 0 -1 -6 -12 -13 -10 -8 -15 -19
-12 -24 4 -6 0 -23 -8 -39 -7 -15 -11 -32 -8 -37 3 -6 2 -7 -4 -4 -6 4 -15 -5
-21 -18 -7 -15 -8 -25 -2 -25 5 0 7 -7 4 -15 -3 -8 -9 -14 -12 -13 -19 2 -23
-4 -12 -17 12 -14 11 -16 -7 -14 -12 1 -21 -35 -11 -48 6 -8 3 -15 -11 -22
-12 -7 -18 -17 -15 -26 4 -8 -1 -18 -10 -21 -11 -4 -15 -14 -12 -31 3 -15 -1
-26 -10 -30 -8 -3 -13 -12 -10 -19 3 -7 -2 -20 -10 -29 -9 -8 -14 -21 -11 -28
2 -6 -6 -28 -19 -48 -13 -20 -20 -40 -17 -43 4 -3 1 -6 -6 -6 -7 0 -10 -4 -7
-9 3 -5 -1 -14 -9 -21 -8 -7 -12 -16 -9 -21 8 -13 -6 -50 -16 -44 -4 3 -6 -5
-2 -17 3 -14 2 -19 -6 -14 -11 6 -17 -12 -13 -36 1 -8 -15 -12 -33 -9 -5 1 -4
-4 3 -12 9 -12 9 -18 -2 -29 -7 -7 -13 -24 -12 -37 1 -12 -4 -25 -12 -28 -7
-3 -13 -10 -12 -17 3 -27 -2 -38 -15 -33 -11 4 -13 0 -10 -18 2 -14 -2 -25
-12 -29 -8 -3 -12 -11 -8 -17 3 -6 0 -15 -7 -20 -8 -4 -14 -12 -14 -16 -1 -4
-6 -18 -13 -30 -7 -13 -9 -23 -5 -23 4 0 -1 -6 -10 -13 -9 -6 -15 -21 -13 -32
2 -11 -1 -26 -7 -33 -23 -28 -56 -105 -50 -115 3 -5 1 -7 -4 -4 -11 7 -27 -20
-24 -39 1 -7 -6 -14 -14 -18 -9 -3 -14 -10 -10 -15 3 -5 1 -12 -5 -16 -5 -3
-10 -14 -10 -25 0 -10 -7 -20 -15 -23 -8 -4 -12 -15 -10 -27 2 -13 -1 -20 -11
-20 -8 0 -14 -7 -14 -15 0 -27 -1 -30 -16 -38 -8 -5 -12 -12 -9 -18 4 -5 -1
-16 -9 -24 -8 -9 -12 -23 -9 -32 4 -11 3 -14 -5 -9 -11 6 -14 0 -11 -20 0 -4
-5 -10 -13 -15 -7 -5 -14 -13 -14 -19 -1 -5 -2 -15 -3 -21 0 -5 -6 -7 -11 -4
-7 4 -9 -3 -6 -19 3 -18 -1 -27 -15 -31 -18 -6 -21 -10 -23 -37 -1 -7 -8 -18
-16 -25 -8 -6 -16 -16 -16 -22 -1 -6 -2 -16 -3 -22 0 -5 -5 -7 -11 -4 -6 4 -7
-1 -3 -10 3 -10 0 -21 -8 -26 -8 -4 -14 -12 -14 -16 -1 -4 -6 -18 -13 -29 -6
-12 -9 -24 -5 -27 3 -4 -2 -9 -11 -13 -9 -3 -16 -15 -16 -25 0 -10 -5 -19 -11
-19 -5 0 -7 -4 -4 -10 3 -5 -1 -10 -11 -10 -11 0 -15 -6 -11 -19 3 -13 -1 -21
-14 -24 -13 -3 -17 -11 -13 -21 4 -10 0 -18 -10 -22 -9 -3 -13 -10 -10 -15 3
-5 -6 -23 -21 -41 -14 -17 -24 -37 -21 -44 3 -8 0 -13 -7 -11 -6 1 -13 -8 -15
-20 -2 -13 -8 -23 -13 -23 -5 0 -9 -7 -9 -15 0 -9 -11 -28 -24 -42 -14 -15
-23 -30 -21 -34 3 -4 -2 -12 -10 -19 -8 -7 -13 -16 -10 -20 3 -5 -6 -17 -20
-28 -14 -11 -25 -29 -25 -41 0 -12 -4 -21 -10 -21 -5 0 -9 -3 -8 -7 4 -13 -26
-53 -39 -53 -7 0 -10 -7 -6 -15 3 -9 -2 -22 -12 -29 -10 -7 -15 -18 -11 -24 3
-6 -5 -20 -20 -31 -14 -11 -23 -25 -19 -31 3 -5 -1 -13 -9 -16 -9 -3 -16 -15
-16 -25 0 -10 -11 -26 -24 -35 -15 -9 -23 -21 -19 -30 3 -8 -6 -23 -21 -35
-14 -11 -25 -23 -23 -27 4 -12 -30 -52 -37 -44 -5 4 -6 -4 -4 -18 2 -16 -1
-24 -9 -23 -7 2 -13 -3 -13 -11 0 -8 -5 -16 -11 -18 -5 -2 -11 -11 -12 -20 -2
-9 -8 -22 -15 -30 -6 -8 -9 -17 -6 -20 3 -3 -7 -15 -22 -27 -16 -13 -24 -27
-20 -36 3 -8 1 -15 -5 -15 -6 0 -17 -7 -25 -15 -9 -8 -12 -15 -8 -15 3 0 1 -7
-6 -15 -7 -8 -9 -15 -5 -15 4 0 -8 -12 -27 -28 -19 -15 -33 -33 -30 -40 2 -6
-3 -15 -12 -18 -9 -3 -16 -12 -16 -20 0 -8 -5 -14 -10 -14 -6 0 -10 -8 -8 -17
2 -10 -3 -17 -9 -16 -7 2 -12 -3 -10 -10 1 -6 -4 -11 -12 -9 -8 2 -11 -3 -8
-12 4 -9 -6 -26 -23 -43 -22 -20 -26 -30 -18 -40 7 -9 7 -13 -1 -13 -17 0 -71
-58 -71 -75 0 -8 -9 -20 -20 -27 -11 -7 -20 -21 -20 -31 0 -10 -7 -20 -15 -23
-8 -3 -17 -14 -20 -25 -4 -10 -13 -19 -21 -19 -10 0 -13 -6 -10 -18 4 -13 -1
-22 -17 -31 -13 -7 -32 -29 -43 -49 -22 -42 -49 -72 -65 -72 -6 0 -8 -7 -5
-16 4 -11 -6 -28 -31 -50 -20 -19 -34 -37 -30 -40 3 -3 -10 -21 -29 -39 -18
-18 -34 -40 -34 -49 0 -9 -7 -19 -15 -22 -8 -4 -12 -10 -9 -15 3 -5 0 -9 -6
-9 -18 0 -41 -28 -43 -50 -1 -11 -5 -20 -9 -20 -9 0 -73 -69 -73 -79 0 -10
-52 -71 -56 -66 -2 1 -10 -3 -17 -11 -7 -8 -10 -14 -5 -14 4 0 -2 -6 -13 -14
-10 -8 -20 -19 -20 -25 -1 -6 -2 -16 -3 -22 0 -5 -5 -7 -11 -4 -5 3 -10 1 -10
-4 0 -6 -13 -23 -30 -38 -16 -14 -30 -32 -30 -39 0 -7 -19 -32 -42 -55 -24
-24 -42 -47 -41 -51 2 -4 0 -7 -5 -7 -19 3 -33 -2 -27 -11 3 -5 1 -10 -4 -10
-6 0 -11 -7 -11 -16 0 -8 -29 -43 -64 -77 -41 -40 -62 -69 -60 -80 1 -11 0
-17 -2 -14 -8 7 -181 -167 -176 -176 2 -5 -35 -47 -82 -93 -47 -47 -86 -90
-86 -95 0 -6 -3 -8 -7 -6 -10 4 -128 -115 -129 -131 -2 -27 -5 -31 -24 -37
-11 -3 -20 -13 -20 -21 0 -8 -4 -14 -8 -14 -13 0 -52 -36 -52 -48 0 -6 -9 -14
-20 -17 -11 -3 -20 -13 -20 -21 0 -8 -4 -14 -9 -14 -11 0 -101 -90 -101 -102
0 -5 -4 -7 -8 -4 -5 3 -15 -6 -22 -19 -7 -14 -17 -25 -21 -25 -9 0 -99 -91
-99 -100 0 -4 -12 -12 -26 -18 -14 -7 -22 -17 -19 -22 3 -6 -2 -10 -13 -10
-20 0 -135 -104 -125 -114 4 -3 2 -6 -4 -6 -14 0 -172 -157 -165 -164 5 -5
-13 -10 -30 -7 -3 0 -49 -41 -101 -92 -52 -50 -100 -93 -108 -95 -7 -2 -39
-30 -71 -63 -31 -32 -64 -59 -72 -59 -9 0 -16 -4 -16 -10 0 -5 -7 -10 -15 -10
-8 0 -15 -5 -15 -11 0 -13 -38 -49 -52 -49 -4 0 -8 -7 -8 -15 0 -8 -7 -15 -16
-15 -8 0 -12 -4 -9 -10 5 -9 -6 -14 -26 -12 -3 1 -26 -19 -50 -44 -24 -24 -49
-44 -56 -44 -6 0 -19 -10 -27 -22 -9 -12 -16 -19 -16 -14 0 4 -15 -10 -33 -31
-18 -22 -37 -38 -43 -36 -6 2 -27 -13 -47 -33 -20 -21 -40 -35 -43 -32 -3 3
-28 -17 -55 -44 -31 -30 -56 -48 -64 -44 -8 3 -15 1 -15 -4 0 -17 -48 -61 -69
-63 -12 -1 -21 -5 -21 -10 0 -15 -50 -58 -60 -52 -4 3 -22 -11 -39 -31 -21
-23 -37 -34 -47 -30 -10 4 -18 -1 -21 -14 -3 -11 -9 -17 -14 -14 -5 3 -9 -1
-9 -9 0 -14 -19 -27 -48 -33 -15 -3 -52 -43 -52 -56 0 -4 -10 -8 -23 -8 -12 0
-28 -9 -35 -20 -7 -11 -19 -20 -28 -20 -8 0 -30 -16 -48 -35 -18 -19 -35 -32
-38 -30 -3 3 -17 -6 -33 -21 -16 -15 -34 -23 -43 -19 -9 3 -13 3 -10 -1 11
-10 -42 -53 -58 -47 -8 3 -14 0 -14 -5 0 -16 -50 -63 -59 -57 -5 2 -19 -7 -31
-20 -13 -14 -30 -25 -38 -25 -8 0 -23 -10 -34 -22 -11 -13 -23 -23 -28 -23 -5
0 -20 -10 -35 -23 -15 -13 -33 -21 -41 -18 -7 3 -13 0 -11 -6 1 -5 -6 -12 -16
-13 -10 -2 -28 -14 -40 -27 -13 -14 -28 -23 -34 -21 -6 2 -19 -6 -29 -19 -11
-13 -25 -23 -31 -24 -29 -2 -34 -4 -29 -13 5 -7 -7 -17 -34 -26 -27 -9 -40
-19 -40 -31 0 -8 -10 -14 -25 -14 -15 0 -25 -6 -25 -15 0 -9 -6 -12 -15 -9 -9
4 -24 -3 -36 -17 -12 -13 -25 -23 -31 -21 -5 1 -16 -4 -24 -13 -9 -8 -21 -15
-29 -15 -7 0 -16 -7 -19 -16 -3 -8 -10 -12 -16 -9 -5 3 -10 1 -10 -4 0 -6 -7
-11 -15 -11 -9 0 -18 -7 -21 -15 -4 -8 -10 -12 -15 -9 -5 3 -23 -6 -40 -20
-17 -15 -34 -24 -39 -21 -4 3 -11 -2 -14 -11 -3 -8 -10 -13 -15 -10 -5 3 -20
-6 -35 -21 -14 -14 -26 -22 -26 -18 0 5 -8 1 -18 -8 -10 -10 -22 -14 -25 -10
-4 3 -7 1 -7 -6 0 -7 -5 -9 -10 -6 -6 3 -13 0 -16 -8 -3 -9 -13 -13 -27 -9
-12 3 -19 1 -15 -3 11 -11 -31 -45 -48 -38 -8 3 -14 0 -14 -6 0 -11 -43 -34
-65 -35 -14 -1 -52 -40 -48 -48 2 -4 -2 -5 -10 -2 -8 3 -21 -1 -28 -8 -8 -7
-21 -14 -29 -16 -8 -2 -18 -8 -21 -14 -4 -6 -12 -7 -18 -4 -6 4 -14 0 -17 -9
-4 -9 -13 -14 -20 -11 -8 3 -14 1 -14 -5 0 -6 -4 -8 -9 -4 -5 3 -12 1 -16 -5
-4 -6 -11 -7 -17 -4 -7 4 -8 2 -4 -5 5 -7 -3 -13 -23 -17 -17 -4 -31 -13 -31
-21 0 -8 -5 -11 -10 -8 -6 3 -13 -1 -16 -9 -3 -9 -10 -14 -14 -11 -4 3 -13 -2
-20 -10 -6 -7 -18 -11 -26 -8 -7 3 -17 -2 -20 -11 -3 -9 -10 -14 -14 -11 -5 3
-16 -2 -25 -11 -9 -9 -19 -14 -22 -10 -4 3 -18 -4 -31 -16 -14 -13 -22 -16
-18 -8 4 8 -1 5 -12 -7 -14 -16 -22 -19 -31 -10 -8 8 -11 8 -11 0 0 -12 -80
-57 -80 -45 0 4 -7 -1 -15 -12 -7 -10 -18 -15 -24 -12 -5 4 -12 2 -16 -4 -3
-5 -26 -19 -51 -30 -24 -11 -44 -24 -44 -29 0 -5 -9 -7 -20 -4 -14 4 -20 0
-20 -12 0 -13 -3 -15 -13 -7 -10 8 -17 7 -26 -7 -9 -12 -21 -16 -34 -13 -12 3
-25 -2 -33 -12 -7 -10 -18 -15 -23 -11 -6 3 -14 -1 -17 -9 -3 -9 -10 -13 -15
-10 -5 3 -16 -2 -25 -10 -9 -9 -20 -14 -25 -10 -5 3 -12 -2 -15 -10 -3 -9 -14
-16 -24 -16 -10 0 -25 -7 -33 -15 -8 -8 -18 -11 -22 -7 -3 4 -11 -1 -16 -11
-8 -13 -14 -15 -30 -7 -15 9 -21 7 -25 -5 -3 -8 -14 -15 -25 -15 -10 0 -23 -8
-28 -17 -6 -10 -11 -14 -11 -9 0 4 -11 1 -25 -8 -14 -9 -25 -13 -25 -10 0 4
-8 0 -17 -8 -10 -8 -29 -15 -43 -16 -14 -1 -26 -6 -28 -12 -2 -5 -12 -10 -23
-10 -11 0 -22 -7 -25 -15 -4 -8 -10 -12 -15 -10 -5 3 -19 -1 -31 -8 -13 -8
-31 -13 -41 -12 -9 2 -15 -1 -11 -6 5 -8 -17 -13 -32 -6 -3 1 -10 -6 -15 -15
-5 -10 -16 -15 -25 -11 -8 3 -22 -2 -32 -10 -9 -9 -21 -17 -27 -18 -5 -1 -19
-5 -30 -10 -11 -4 -33 -10 -48 -14 -15 -3 -25 -10 -22 -15 3 -5 -3 -7 -14 -5
-11 2 -22 -3 -25 -10 -3 -8 -13 -11 -24 -8 -10 2 -25 -1 -33 -9 -8 -7 -21 -14
-29 -16 -8 -2 -17 -7 -20 -10 -3 -4 -14 -7 -25 -8 -30 -1 -87 -29 -78 -38 5
-4 -4 -6 -18 -5 -14 2 -33 -2 -42 -9 -8 -7 -19 -12 -23 -11 -5 1 -12 0 -16 -1
-5 -1 -11 -3 -15 -5 -23 -6 -49 -20 -55 -28 -3 -6 -20 -10 -37 -9 -19 0 -31
-4 -31 -12 0 -8 -10 -12 -25 -10 -14 1 -31 -4 -39 -11 -8 -8 -25 -12 -41 -9
-17 3 -24 1 -20 -6 3 -5 3 -11 -2 -11 -4 -1 -21 -3 -37 -5 -16 -2 -34 -10 -39
-19 -7 -13 -11 -14 -25 -3 -9 7 -13 8 -9 2 4 -7 0 -17 -8 -24 -12 -10 -15 -10
-15 0 0 9 -3 10 -13 1 -8 -6 -17 -8 -20 -4 -4 3 -7 2 -7 -4 0 -15 -34 -22 -53
-11 -13 7 -15 5 -11 -7 6 -15 3 -16 -38 -18 -13 -1 -28 -8 -34 -16 -6 -8 -18
-11 -27 -8 -9 3 -23 -1 -31 -9 -9 -8 -21 -14 -28 -13 -30 4 -58 -2 -70 -15
-10 -9 -20 -11 -30 -5 -11 6 -18 4 -22 -7 -4 -11 -14 -14 -27 -11 -13 3 -26
-1 -36 -13 -9 -10 -23 -15 -35 -12 -11 3 -24 -1 -28 -8 -5 -8 -25 -13 -48 -12
-27 1 -42 -3 -45 -13 -4 -8 -15 -12 -29 -10 -12 3 -25 -1 -30 -8 -4 -6 -18
-12 -32 -12 -14 -1 -34 -9 -45 -19 -12 -11 -21 -15 -21 -9 0 13 -35 10 -54 -6
-8 -7 -20 -10 -25 -7 -5 4 -12 2 -15 -2 -3 -5 -17 -7 -31 -4 -15 2 -25 0 -25
-7 0 -6 -14 -11 -31 -11 -20 0 -28 -4 -23 -12 5 -7 2 -9 -9 -5 -9 3 -17 1 -19
-4 -2 -7 -13 -7 -31 0 -16 6 -26 8 -24 3 9 -13 -17 -27 -48 -26 -16 0 -37 -5
-45 -11 -8 -7 -28 -11 -45 -10 -16 0 -38 -5 -47 -13 -10 -8 -29 -12 -42 -10
-16 3 -33 -2 -46 -14 -11 -10 -20 -15 -20 -10 0 13 -44 9 -53 -5 -4 -7 -25
-13 -45 -13 -21 0 -43 -5 -50 -12 -7 -7 -31 -11 -53 -9 -23 1 -45 -2 -49 -8
-3 -6 -23 -12 -43 -13 -21 -1 -41 -6 -47 -13 -5 -6 -28 -10 -52 -9 -25 1 -48
-4 -56 -13 -9 -9 -26 -12 -48 -8 -27 4 -34 1 -34 -11 0 -11 -5 -14 -16 -10 -9
4 -23 1 -30 -5 -11 -9 -14 -8 -14 2 0 11 -2 11 -10 -1 -6 -10 -10 -11 -10 -2
0 8 -11 6 -37 -8 -20 -11 -40 -16 -43 -12 -10 14 -45 7 -59 -11 -9 -12 -17
-15 -23 -9 -6 6 -22 7 -38 2 -18 -5 -32 -4 -39 3 -8 8 -11 8 -11 -2 0 -7 -4
-10 -9 -7 -5 3 -12 -1 -15 -9 -4 -13 -10 -14 -26 -5 -12 7 -20 7 -20 1 0 -5
-9 -9 -20 -8 -11 1 -20 6 -20 11 0 6 -6 1 -14 -10 -12 -16 -25 -20 -71 -19
-35 1 -59 -3 -61 -10 -3 -7 -26 -11 -60 -10 -33 1 -60 -3 -68 -10 -7 -7 -38
-12 -79 -11 -42 1 -68 -3 -71 -11 -3 -7 -30 -11 -71 -12 -37 0 -72 -4 -79 -9
-6 -6 -39 -10 -72 -11 -34 -1 -75 -8 -90 -16 -22 -11 -30 -12 -36 -2 -4 7 -8
7 -8 2 0 -12 -40 -13 -58 -1 -7 4 -12 3 -12 -3 0 -6 -7 -8 -15 -5 -8 4 -22 0
-31 -7 -10 -8 -47 -12 -104 -12 -57 0 -91 -5 -94 -12 -2 -7 -41 -11 -116 -10
-74 1 -113 -2 -116 -10 -3 -7 -45 -11 -127 -10 -106 0 -124 -2 -135 -17 -8
-11 -19 -15 -25 -11 -14 9 -187 11 -192 2 -5 -6 -35 -6 -50 2 -28 13 -100 -6
-88 -24 4 -7 0 -8 -13 -3 -28 12 -67 13 -81 2 -9 -5 -13 -4 -13 4 0 9 -3 10
-13 1 -8 -6 -16 -8 -19 -6 -9 10 -78 12 -78 3 0 -5 -4 -6 -10 -3 -15 9 -93 10
-108 2 -7 -5 -12 -3 -12 3 0 7 -6 8 -19 1 -10 -6 -21 -7 -25 -4 -11 11 -36 12
-36 2 0 -6 -5 -7 -12 -3 -14 9 -69 10 -91 1 -10 -4 -17 -3 -17 1 0 4 -13 7
-30 7 -16 0 -30 -4 -30 -8 0 -5 -4 -5 -10 -2 -16 10 -80 12 -80 3 0 -5 -4 -6
-10 -3 -15 9 -93 10 -108 2 -7 -5 -12 -3 -12 3 0 7 -6 8 -19 1 -10 -6 -21 -7
-25 -4 -11 12 -36 12 -36 0 0 -7 -3 -8 -10 -1 -6 6 -31 8 -60 4 -28 -4 -50 -4
-50 -1 0 8 -106 5 -119 -3 -6 -4 -11 -3 -11 2 0 5 -7 9 -15 9 -8 0 -15 -5 -15
-11 0 -6 -5 -4 -10 4 -7 11 -10 11 -10 2 0 -7 -5 -10 -11 -6 -17 10 -51 11
-76 2 -13 -4 -23 -4 -23 0 0 8 -136 6 -157 -2 -7 -3 -13 -1 -13 5 0 6 -6 6
-19 0 -14 -8 -22 -7 -30 3 -15 18 -5 23 41 21 21 -1 39 4 42 10 2 7 19 11 38
10 18 -2 40 3 48 10 8 6 29 11 45 11 17 -1 36 5 44 12 7 7 27 12 43 10 16 -2
32 3 37 11 5 7 13 11 18 8 5 -3 22 1 37 9 16 7 42 14 60 14 17 0 39 7 49 14 9
7 28 11 42 8 16 -3 27 1 30 10 4 10 15 13 32 10 14 -3 28 1 33 8 5 7 20 14 36
16 15 2 30 7 33 12 3 5 23 8 43 8 23 -1 40 4 43 12 3 7 13 12 22 11 10 -2 29
3 41 10 13 7 26 10 29 7 9 -8 44 14 38 24 -3 5 6 7 20 4 14 -2 35 1 48 9 25
15 46 15 66 3 8 -5 12 -5 9 0 -10 15 16 31 45 28 17 -2 27 2 27 10 0 9 11 13
30 11 20 -2 30 2 30 11 0 9 10 12 29 10 20 -2 32 2 36 11 3 8 11 13 18 10 17
-6 59 11 53 22 -3 5 3 7 14 4 12 -3 22 1 26 10 3 8 13 13 22 10 10 -2 31 3 47
11 15 8 33 12 38 9 5 -3 13 0 17 7 4 7 20 14 34 15 15 2 33 9 41 15 8 7 15 9
15 4 0 -5 5 -2 10 6 6 9 10 10 10 3 0 -14 60 14 73 35 6 10 12 10 22 2 9 -8
17 -7 29 5 9 9 16 14 16 10 0 -3 6 -3 12 1 7 5 21 9 31 9 10 1 23 8 28 16 5 8
9 10 9 5 0 -5 8 -3 18 6 9 8 27 13 39 12 12 0 24 5 27 13 3 8 10 12 15 9 5 -4
17 1 25 10 9 8 16 12 16 7 0 -4 5 -1 10 7 8 12 10 12 10 1 0 -11 3 -11 15 -1
8 7 15 9 15 4 0 -5 4 -4 8 1 12 16 50 35 73 35 11 0 27 7 36 15 8 8 19 13 24
9 5 -3 12 1 15 9 3 8 16 13 30 11 15 -1 28 4 31 12 3 8 10 11 15 8 6 -4 14 -1
18 6 4 7 19 14 33 14 14 1 32 8 40 15 9 7 20 10 26 7 5 -4 13 3 16 15 5 14 10
18 17 11 8 -8 15 -6 25 4 8 8 25 14 39 14 14 0 27 6 30 14 3 8 12 12 20 9 7
-3 16 2 20 10 3 9 11 14 19 11 7 -3 19 2 28 10 9 9 22 16 31 16 8 0 18 5 22
11 3 6 14 9 24 6 11 -3 21 1 24 9 3 8 15 14 26 14 11 0 20 5 20 10 0 6 11 10
24 10 13 0 26 7 30 15 3 8 9 15 13 14 21 -4 33 2 27 13 -4 6 -3 8 4 4 6 -3 30
4 54 17 24 14 51 23 60 22 9 -2 19 4 22 12 3 8 10 12 15 9 5 -4 17 1 25 10 9
9 23 13 31 10 9 -3 19 3 25 15 6 11 15 17 21 14 5 -4 12 0 15 9 3 8 12 12 19
10 7 -3 16 -1 20 5 3 6 15 11 26 11 11 0 22 7 25 15 4 8 10 13 14 10 5 -3 15
2 24 11 9 8 20 13 24 10 5 -3 14 3 22 14 7 10 19 16 26 13 8 -3 21 2 30 11 8
9 20 14 25 11 5 -4 9 -1 9 4 0 6 9 11 19 11 10 0 22 7 25 16 3 8 10 13 15 10
5 -3 14 1 21 9 7 8 17 12 23 8 5 -3 16 2 23 12 7 10 19 15 27 12 9 -3 20 5 28
19 8 17 19 24 31 21 11 -3 20 2 23 14 4 11 11 17 16 14 9 -6 69 23 80 39 4 5
11 6 17 2 5 -3 13 1 16 10 4 9 13 14 21 10 8 -3 15 -1 15 3 0 5 14 14 30 20
17 5 33 17 36 26 3 8 13 15 21 15 8 0 21 7 30 15 8 8 19 12 25 9 6 -4 14 0 19
7 4 8 12 14 16 14 15 0 53 32 47 38 -4 4 3 5 15 2 14 -2 21 1 21 11 0 8 6 14
13 13 19 -4 69 23 95 50 18 18 26 21 32 11 6 -9 10 -7 15 9 3 12 11 19 16 15
6 -3 22 6 36 20 14 14 29 23 34 20 5 -2 14 4 20 15 7 10 19 17 26 14 8 -3 25
8 38 23 15 18 25 23 25 15 0 -11 3 -11 13 3 7 9 20 18 29 20 10 1 26 12 37 25
11 12 21 22 23 21 11 -4 80 33 85 45 3 8 17 15 31 15 14 0 23 3 19 6 -7 7 26
42 35 37 12 -6 48 21 48 35 0 8 6 12 15 8 8 -3 25 5 39 19 14 14 32 25 41 25
8 0 15 5 15 10 0 6 7 10 15 10 9 0 27 11 41 25 14 14 31 25 39 25 8 0 19 9 25
21 7 11 18 18 25 15 8 -3 23 6 34 19 10 14 26 25 35 25 9 0 19 7 22 15 4 8 10
13 14 10 5 -3 11 4 15 15 4 11 11 18 16 15 5 -4 9 -1 9 4 0 6 9 11 20 11 10 0
24 9 30 20 6 11 17 20 25 20 9 0 23 9 32 20 10 11 24 20 31 20 8 0 29 16 47
35 18 20 36 35 41 33 5 -1 18 5 29 15 11 9 24 17 28 16 5 0 16 8 25 18 29 32
74 63 83 57 5 -3 9 0 9 6 0 16 39 49 72 61 15 6 34 21 43 35 8 13 22 24 29 24
8 0 30 16 49 35 18 18 40 35 48 37 7 2 28 17 45 33 17 17 37 31 45 33 18 5 55
44 51 55 -1 5 2 6 8 2 5 -3 10 -2 10 4 0 5 10 13 23 17 12 4 36 21 52 39 17
17 36 30 43 27 6 -2 15 3 18 12 3 9 10 13 15 10 5 -3 9 -1 9 3 0 5 18 28 40
51 22 22 40 37 40 32 0 -5 7 -7 15 -4 8 4 13 9 12 13 -2 3 4 14 15 23 10 10
18 15 18 10 0 -4 5 1 11 10 5 9 27 27 49 39 22 13 40 29 40 36 0 8 5 11 10 8
6 -3 10 2 10 11 0 10 3 14 7 11 3 -4 19 9 36 28 16 19 33 33 37 30 10 -6 50
29 50 45 0 7 3 11 6 7 3 -3 26 15 50 40 25 25 48 43 51 39 3 -3 34 23 68 59
35 36 68 65 75 65 6 0 9 4 6 8 -6 10 29 42 46 42 7 0 40 29 74 64 34 36 65 62
68 59 3 -4 6 -1 6 5 0 15 117 132 124 124 3 -3 6 0 6 7 0 16 26 42 33 34 3 -3
48 36 99 86 50 50 96 91 102 91 5 0 7 2 4 5 -6 7 151 165 164 165 4 0 8 4 8 8
0 5 36 45 80 89 44 44 80 79 80 77 0 -2 8 4 19 13 10 10 18 20 18 23 -1 3 16
22 36 43 20 21 37 35 37 30 0 -4 8 4 18 20 10 15 22 24 25 20 4 -3 7 3 7 14 0
14 54 75 150 171 82 83 151 156 152 163 2 7 42 52 91 100 48 48 87 93 87 100
0 7 18 30 40 50 22 21 40 43 40 49 0 6 4 9 9 6 11 -7 44 42 36 54 -3 6 -2 10
4 10 14 0 81 67 81 81 0 7 3 10 6 6 11 -11 40 28 36 48 -3 11 -2 17 2 13 8 -7
66 49 66 64 0 5 5 6 10 3 6 -3 11 0 11 7 1 7 2 20 3 28 0 8 6 14 13 13 6 -2
15 6 18 17 4 11 9 20 13 20 14 0 57 46 60 64 4 20 45 66 60 66 8 0 14 11 20
42 1 5 17 22 35 39 17 17 32 37 32 44 0 8 15 27 33 44 19 16 34 36 36 44 1 8
16 29 34 46 18 18 32 42 32 53 0 12 2 19 6 16 3 -3 17 6 33 21 21 20 25 30 18
45 -6 12 -6 16 1 12 12 -7 72 53 72 72 0 17 26 43 34 35 3 -4 6 1 6 11 0 9 5
14 10 11 6 -3 10 3 10 15 0 11 12 32 27 46 14 13 23 27 20 30 -4 4 9 21 29 39
19 18 37 40 38 49 1 9 12 25 24 37 12 11 20 24 17 29 -3 5 4 15 16 23 18 13
26 29 28 61 1 5 4 6 8 3 9 -9 32 24 33 46 0 10 4 16 9 12 5 -3 12 4 16 14 3
11 15 23 26 26 10 4 17 10 14 15 -8 13 17 50 34 50 8 0 12 7 9 18 -4 15 25 55
34 47 2 -2 5 6 5 18 1 12 7 23 13 25 5 2 10 10 10 18 0 8 11 26 25 40 14 14
23 29 20 34 -3 4 9 20 26 34 17 14 25 26 17 26 -9 1 -7 5 5 14 9 7 17 17 17
21 0 4 8 14 18 21 11 9 13 13 4 14 -8 0 0 12 17 26 17 14 28 30 25 36 -3 5 2
15 12 22 10 8 15 20 11 30 -4 9 -2 16 4 16 15 0 36 23 41 46 2 10 9 18 15 17
6 -1 8 9 5 25 -3 15 -1 24 2 20 11 -9 48 31 40 43 -4 6 0 15 7 20 8 4 14 12
14 16 0 4 9 18 20 30 10 12 20 29 21 38 1 9 10 25 18 34 9 10 13 20 10 24 -3
3 6 13 20 22 14 10 23 22 19 31 -3 8 -1 14 4 14 5 0 20 25 33 55 13 30 29 55
37 55 7 0 13 8 13 17 0 9 7 25 17 35 12 14 13 18 3 18 -10 0 -9 3 3 13 9 6 17
19 19 27 4 19 24 40 38 40 6 0 8 4 5 10 -3 5 1 21 10 34 9 14 14 30 10 36 -3
5 1 10 10 10 11 0 15 7 13 22 -2 13 3 23 10 24 23 3 24 4 13 18 -10 11 -8 16
9 21 11 3 18 10 15 15 -3 5 2 21 11 35 9 14 14 25 10 25 -3 0 9 14 26 31 18
17 34 26 36 20 3 -10 40 5 52 21 3 4 18 5 33 4 16 -2 34 2 40 8 7 6 21 11 32
11 11 0 23 4 27 9 3 6 19 11 35 14 15 2 32 7 37 13 6 5 27 9 48 9 22 0 41 5
44 13 2 7 17 12 32 11 15 0 29 3 32 7 3 5 16 10 29 12 12 2 26 8 29 13 4 5 23
9 42 9 19 -1 41 5 49 13 8 8 24 12 37 9 14 -2 25 2 29 10 3 8 11 13 18 10 6
-2 26 3 42 11 17 9 42 15 57 13 14 -1 29 3 33 9 3 5 11 8 16 5 5 -4 9 -1 9 5
0 6 4 9 9 6 12 -8 42 4 36 14 -3 4 11 6 31 5 23 -2 42 2 51 11 8 8 25 12 39
10 16 -3 24 0 24 9 0 7 8 12 18 10 9 -1 27 3 38 10 12 8 36 13 53 13 18 -1 37
4 43 10 7 7 25 12 42 12 16 0 27 2 24 6 -7 7 45 61 55 56 4 -2 7 4 7 12 0 9 3
15 8 13 4 -1 8 2 9 6 1 5 19 22 39 38 20 16 33 29 29 29 -4 0 4 9 19 21 14 11
26 29 26 40 0 10 5 19 10 19 7 0 10 89 10 255 -1 231 -3 256 -18 267 -10 7
-26 24 -35 38 -9 13 -17 21 -17 17 0 -4 -8 1 -18 10 -11 10 -17 21 -15 26 2 4
-1 7 -7 7 -15 0 -41 26 -33 34 4 3 1 6 -6 6 -6 0 -22 11 -35 25 -13 14 -31 25
-40 25 -9 0 -16 4 -16 9 0 4 -12 7 -27 7 -16 -1 -36 2 -45 7 -11 4 -18 4 -18
-2 0 -5 -10 -7 -22 -4 -21 4 -54 4 -103 -1 -11 -1 -26 2 -32 7 -9 6 -13 5 -13
-2 0 -9 -5 -9 -20 -1 -11 6 -20 7 -20 2 0 -4 -9 -8 -20 -8 -11 0 -20 4 -20 9
0 5 -7 3 -17 -4 -9 -8 -19 -13 -22 -12 -3 0 -5 -2 -4 -6 1 -4 -8 -7 -20 -6
-12 1 -25 -3 -29 -9 -4 -5 -19 -11 -34 -12 -16 0 -30 -6 -32 -13 -2 -6 -12
-11 -23 -11 -10 0 -19 -5 -19 -11 0 -6 -6 -9 -14 -6 -7 3 -26 -1 -41 -9 -35
-18 -45 -18 -45 1 0 8 5 15 10 15 6 0 10 9 10 21 0 13 4 18 11 13 8 -5 10 1 7
19 -3 16 0 31 8 38 8 6 14 20 14 31 0 10 6 21 14 24 8 3 12 13 9 24 -3 11 2
27 11 35 9 9 13 21 10 26 -3 6 2 16 12 23 10 8 15 20 11 29 -3 9 1 23 9 32 9
9 13 23 10 31 -4 11 -2 15 8 11 16 -6 30 30 14 39 -5 4 -3 13 6 22 8 10 16 24
18 32 2 8 7 18 12 21 5 4 10 17 11 30 4 39 5 40 15 34 5 -3 8 7 5 25 -2 21 1
33 11 37 7 3 11 10 8 15 -4 6 -1 14 6 18 12 7 16 24 19 68 1 7 5 11 9 8 4 -2
9 10 10 27 2 18 7 34 12 35 6 2 10 17 10 33 0 16 5 29 10 29 6 0 10 16 10 35
0 24 5 35 15 35 8 0 12 6 9 14 -3 7 1 20 9 28 8 7 14 25 13 38 -1 15 4 24 11
23 8 -2 11 7 9 27 -2 17 3 35 10 41 8 6 12 22 10 34 -3 15 1 26 11 29 10 4 14
15 11 31 -3 14 -2 25 3 25 7 0 20 29 25 58 1 6 -3 12 -9 12 -7 1 -3 8 8 18 14
11 20 28 19 49 0 18 2 30 6 28 10 -6 22 24 14 36 -3 5 2 16 10 25 9 9 14 26
12 40 -3 15 0 24 9 24 9 0 12 13 11 40 0 22 4 42 10 44 6 2 12 17 12 32 0 15
6 32 13 38 8 6 13 24 11 40 -2 18 0 26 7 21 7 -4 11 9 11 39 0 31 4 46 13 46
9 0 12 12 10 40 -2 30 1 42 13 47 8 3 13 12 10 20 -3 8 0 24 6 36 7 12 13 33
13 47 0 14 5 32 10 40 5 8 10 31 11 50 3 52 3 52 16 44 8 -5 9 0 6 14 -4 12
-3 22 2 22 4 0 5 11 2 25 -3 16 0 25 8 25 7 0 10 8 7 20 -3 11 -1 20 3 20 5 0
7 10 5 22 -3 12 3 27 13 34 14 11 14 13 2 14 -9 0 -11 3 -5 8 6 4 11 15 12 25
1 33 3 38 12 33 5 -3 7 11 5 31 -2 21 2 44 10 53 7 8 13 32 12 53 -1 25 2 36
10 33 9 -3 12 10 10 45 -1 31 3 54 11 61 8 6 12 29 11 56 -1 32 3 48 16 57 9
7 13 16 8 19 -5 3 -7 19 -4 35 2 17 8 28 13 25 9 -5 11 7 11 73 0 18 6 37 12
43 7 5 11 29 10 54 -2 29 2 46 10 49 9 4 12 22 10 58 -2 40 2 56 14 67 11 9
12 11 2 6 -12 -6 -13 -5 -4 7 7 8 11 28 10 44 -2 17 3 39 10 50 7 11 12 38 12
60 -1 62 1 77 10 71 11 -7 13 7 12 92 0 18 6 40 15 48 11 11 12 20 5 33 -5 10
-6 21 -3 25 11 10 9 56 -2 56 -5 1 0 9 12 19 16 14 19 21 10 30 -8 8 -8 11 1
11 10 0 10 5 2 20 -6 11 -7 20 -1 20 5 0 7 18 5 40 -3 28 0 40 9 40 10 0 13
19 11 74 -1 51 3 76 11 80 9 3 12 29 10 85 -1 57 2 82 11 85 9 4 12 30 11 95
-2 64 1 92 10 95 8 3 11 35 11 105 -1 65 3 105 11 115 13 15 18 226 7 245 -3
5 1 17 10 25 13 14 16 43 16 182 0 116 3 167 11 170 17 6 16 2046 0 2066 -8 8
-11 71 -10 181 2 130 -1 166 -10 162 -10 -3 -13 25 -13 123 0 73 -4 132 -10
138 -12 12 -19 194 -8 194 9 0 -2 31 -16 46 -6 6 -11 48 -10 97 1 55 -3 90
-10 96 -7 6 -11 38 -10 83 1 46 -3 79 -11 88 -8 9 -12 38 -11 74 2 46 -1 62
-15 74 -11 10 -15 21 -10 31 8 18 7 58 -2 68 -4 3 -2 14 3 23 7 13 5 21 -5 30
-11 9 -15 31 -14 78 1 51 -2 68 -15 78 -11 8 -13 14 -7 19 8 4 8 12 1 25 -7
13 -7 21 1 26 7 4 7 10 1 16 -6 6 -8 17 -5 24 3 8 -1 16 -9 19 -15 6 -17 62
-3 85 6 9 4 11 -5 5 -10 -6 -12 -4 -6 10 4 11 2 21 -5 26 -7 4 -12 27 -13 51
-1 25 -6 51 -12 59 -6 8 -10 38 -9 68 1 34 -3 55 -11 58 -8 3 -11 21 -10 49 1
26 -3 49 -10 55 -7 5 -12 27 -12 47 0 63 -2 73 -12 67 -6 -4 -10 10 -10 35 0
23 -6 47 -13 55 -7 7 -12 28 -11 46 3 40 -4 71 -15 65 -4 -3 -6 15 -5 39 2 26
-2 50 -10 57 -7 7 -12 30 -11 50 2 23 -3 39 -11 42 -9 3 -12 17 -10 35 2 17
-2 38 -9 48 -7 10 -12 29 -11 43 1 14 -4 30 -10 37 -7 7 -12 29 -12 48 0 20
-7 44 -15 53 -11 12 -13 22 -6 35 7 12 7 17 -2 17 -6 0 -9 7 -5 15 3 9 0 15
-8 15 -15 0 -16 16 -3 38 5 7 3 12 -3 12 -6 0 -9 4 -5 9 3 5 -1 15 -8 23 -7 7
-12 30 -12 51 1 22 -3 37 -10 37 -7 0 -11 12 -10 27 0 15 -8 36 -18 46 -11 11
-15 22 -11 26 19 14 2 67 -18 55 -7 -5 -7 -1 -1 10 12 21 4 78 -9 70 -6 -4 -8
6 -7 23 2 18 -3 37 -12 46 -11 10 -15 26 -11 43 3 19 1 25 -7 20 -12 -8 -15 3
-13 43 1 14 -4 31 -10 39 -7 8 -13 25 -14 39 0 14 -6 28 -12 32 -6 3 -9 19 -8
34 2 18 -1 27 -11 27 -9 0 -12 8 -9 25 3 18 -1 29 -14 37 -17 11 -17 22 1 48
2 3 -6 20 -19 38 -14 19 -19 32 -11 32 8 0 5 7 -6 20 -10 11 -18 33 -17 49 0
16 -5 32 -13 35 -8 3 -12 14 -10 28 3 12 0 25 -6 29 -10 6 -17 28 -18 62 -1
11 -6 15 -13 11 -8 -5 -9 0 -6 14 4 15 2 22 -7 22 -9 0 -13 11 -13 31 1 17 -5
35 -12 39 -8 5 -10 17 -7 30 4 16 1 24 -12 27 -13 3 -17 11 -13 28 2 14 -2 31
-11 40 -9 9 -14 22 -11 30 3 8 -1 24 -9 36 -9 12 -13 28 -10 35 3 10 0 12 -10
8 -12 -4 -14 2 -12 30 1 19 -1 33 -5 31 -3 -2 -11 5 -18 16 -7 10 -8 19 -4 19
5 0 9 7 9 15 0 8 -4 12 -9 9 -4 -3 -8 2 -8 11 0 9 -4 14 -9 11 -4 -3 -6 7 -3
22 3 15 11 31 19 35 11 7 11 12 2 23 -8 10 -8 14 -1 14 6 0 9 6 6 14 -3 7 1
20 10 28 9 10 13 27 9 51 -3 29 -1 37 11 37 11 0 14 9 11 41 -3 28 0 42 11 46
8 3 12 14 10 28 -2 13 2 34 9 49 8 14 13 40 13 57 -1 17 5 34 11 39 7 4 11 21
10 37 -2 17 3 38 11 48 8 9 13 32 12 51 -2 23 2 34 11 34 10 0 12 12 10 45 -3
33 0 45 10 45 10 0 13 12 12 40 -1 23 3 41 11 44 7 3 11 18 8 41 -2 24 1 38
11 41 9 4 14 17 12 37 -2 19 4 42 15 56 13 17 15 28 8 41 -8 15 -6 20 10 25
16 5 18 10 10 26 -7 12 -7 19 -1 19 6 0 8 7 4 16 -3 9 0 20 8 25 16 10 21 49
6 49 -6 0 -2 9 8 20 11 12 19 36 19 60 0 22 6 42 12 44 7 3 11 20 9 41 -1 24
3 39 12 42 8 3 13 13 12 22 -3 34 1 52 12 45 7 -4 10 4 9 22 -3 49 0 64 13 64
9 0 12 11 9 36 -3 20 0 39 6 43 5 3 12 20 13 36 2 17 9 35 15 42 6 6 10 24 8
39 -1 15 3 33 10 40 7 7 12 29 10 48 -1 25 2 36 11 36 8 0 14 10 13 23 -1 36
1 49 10 43 5 -3 9 13 9 35 0 22 8 48 17 58 11 12 13 20 5 28 -7 7 -5 16 8 28
11 11 16 29 14 48 -1 16 3 33 9 37 7 4 13 23 14 41 1 19 5 41 10 48 6 8 10 26
11 39 0 13 6 26 11 30 6 4 10 18 9 32 -2 14 4 35 12 48 8 13 12 30 9 37 -2 7
2 19 10 26 10 8 13 21 9 36 -3 14 -1 23 6 23 8 0 8 4 -1 15 -10 12 -9 15 7 15
16 0 19 6 15 28 -2 17 2 33 11 40 8 7 13 21 10 31 -2 9 2 23 10 30 10 7 13 23
10 42 -2 18 1 35 11 44 8 9 13 22 10 29 -3 7 1 20 8 27 7 8 13 28 12 44 -1 39
6 56 19 48 6 -4 8 3 3 20 -5 20 -1 31 13 44 14 12 17 20 10 29 -6 8 -6 16 3
26 15 15 16 21 20 71 1 20 6 33 10 31 4 -3 8 -2 9 3 5 46 7 56 16 61 13 9 13
42 -1 42 -6 0 0 7 13 16 16 12 21 22 17 39 -4 15 -1 25 9 29 11 4 14 17 12 46
-3 30 0 39 9 36 8 -3 11 2 9 15 -2 10 2 19 8 19 8 0 8 3 -1 9 -10 6 -10 10 3
21 8 7 15 25 15 40 0 16 4 30 10 32 5 2 11 16 12 32 1 15 8 30 14 33 6 2 10
19 9 38 -2 19 1 33 5 32 4 -1 7 1 7 4 -1 4 6 16 16 27 10 11 17 26 15 33 -2 8
3 13 11 11 10 -2 12 4 7 22 -4 18 0 31 16 46 15 14 18 20 7 20 -10 1 -8 6 7
18 11 10 18 24 16 31 -3 8 3 18 12 23 9 5 14 13 11 18 -3 4 6 19 20 31 13 13
25 31 25 39 0 8 9 21 20 28 11 7 20 19 20 28 0 18 23 44 39 44 6 0 8 6 5 14
-6 16 25 58 38 50 5 -3 18 5 29 18 12 12 25 23 30 23 5 0 26 13 46 29 20 16
33 23 29 15 -4 -8 1 -5 11 7 10 11 23 19 29 17 6 -2 17 3 23 11 7 8 18 13 25
10 8 -3 16 2 20 12 5 14 10 13 31 -10 14 -15 25 -32 25 -37z"/>
</g>
</svg>
